<svg width="40" height="12" viewBox="0 0 40 12" fill="none" xmlns="http://www.w3.org/2000/svg">
<rect y="5" width="38" height="2" fill="#F36E1E"/>
<path d="M39.8779 5.72339L34.2745 0.120322C34.1943 0.0402196 34.1021 4.81727e-08 33.9979 4.36201e-08C33.8937 3.90657e-08 33.8015 0.0402196 33.7213 0.120322L33.1202 0.721551C33.04 0.801696 33 0.893759 33 0.998119C33 1.10248 33.04 1.19454 33.1202 1.27469L37.8457 6.00013L33.1202 10.7257C33.04 10.8058 33 10.898 33 11.0021C33 11.1064 33.04 11.1986 33.1202 11.2788L33.7214 11.8798C33.8015 11.96 33.8938 12 33.998 12C34.1021 12 34.1943 11.9599 34.2745 11.8798L39.8776 6.27669C39.9577 6.19659 39.9978 6.10432 39.9978 6.00013C39.9978 5.89593 39.958 5.8037 39.8779 5.72339Z" fill="#F36E1E"/>
</svg>
