<svg width="46" height="36" viewBox="0 0 46 36" fill="none" xmlns="http://www.w3.org/2000/svg">
<path d="M43.7 0H2.3C1.02979 0 0 1.0297 0 2.3V32.9666C0 34.2368 1.0297 35.2666 2.3 35.2666H43.7C44.9702 35.2666 46 34.2369 46 32.9666V2.3C46 1.02979 44.9703 0 43.7 0ZM44.4666 32.9667C44.4666 33.3902 44.1234 33.7334 43.7 33.7334H2.3C1.87657 33.7334 1.53336 33.3902 1.53336 32.9667V2.3C1.53336 1.87657 1.87657 1.53336 2.3 1.53336H43.7C44.1234 1.53336 44.4666 1.87657 44.4666 2.3V32.9667Z" fill="#A8A9AE"/>
<path d="M42.2356 3.06985C42.033 3.05216 41.8317 3.11567 41.676 3.24649L23.9889 18.1044C23.4185 18.5839 22.5859 18.5839 22.0155 18.1044L4.32856 3.2464C4.11877 3.0703 3.83091 3.01945 3.57351 3.11307C3.31611 3.20669 3.12816 3.43058 3.08054 3.70038C3.03292 3.97018 3.13283 4.24483 3.34261 4.42093L21.0296 19.2781C22.1696 20.2379 23.8349 20.2379 24.9749 19.2781L42.6618 4.42101C42.8176 4.29029 42.915 4.10306 42.9327 3.90046C42.9504 3.69786 42.8869 3.49652 42.7561 3.34082C42.6255 3.18494 42.4382 3.08755 42.2356 3.06985Z" fill="#F5941E"/>
<path d="M14.7455 19.1722C14.4741 19.1117 14.1913 19.2028 14.0062 19.4103L3.27282 30.9103C3.07858 31.1092 3.00724 31.3978 3.08649 31.6643C3.16573 31.9309 3.38306 32.1335 3.65439 32.1941C3.92581 32.2547 4.20864 32.1636 4.39371 31.956L15.1271 20.456C15.3213 20.2571 15.3927 19.9685 15.3134 19.702C15.2342 19.4356 15.0169 19.2328 14.7455 19.1722Z" fill="#F5941E"/>
<path d="M31.9943 19.4103C31.8093 19.2028 31.5264 19.1117 31.255 19.1722C30.9836 19.2328 30.7663 19.4356 30.6871 19.702C30.6078 19.9686 30.6792 20.2571 30.8734 20.456L41.6068 31.956C41.8979 32.2541 42.3737 32.2653 42.6783 31.981C42.983 31.6967 43.0049 31.2213 42.7277 30.9102L31.9943 19.4103Z" fill="#F5941E"/>
</svg>
