<svg width="15" height="10" fill="none" xmlns="http://www.w3.org/2000/svg"><path d="M7.495 5.997H7.5a.575.575 0 0 0 .314-.092l.024-.016.017-.01.285-.236 6.799-5.61A.08.08 0 0 0 14.874 0H.079A.077.077 0 0 0 .03.018L7.143 5.88c.09.074.218.116.352.116zM0 .795v8.316l5.096-4.116L0 .795zm9.863 4.228l5.09 4.09V.824l-5.09 4.2zM8.245 6.358a1.177 1.177 0 0 1-.747.258c-.28 0-.545-.09-.748-.257l-1.167-.962L0 9.907v.014c0 .043.037.079.08.079h14.794a.08.08 0 0 0 .08-.08v-.013l-5.58-4.482-1.13.933z" fill="#F5941E"/></svg>