<?xml version="1.0" encoding="UTF-8" standalone="no"?>
<svg
   xmlns:dc="http://purl.org/dc/elements/1.1/"
   xmlns:cc="http://creativecommons.org/ns#"
   xmlns:rdf="http://www.w3.org/1999/02/22-rdf-syntax-ns#"
   xmlns:svg="http://www.w3.org/2000/svg"
   xmlns="http://www.w3.org/2000/svg"
   xmlns:sodipodi="http://sodipodi.sourceforge.net/DTD/sodipodi-0.dtd"
   xmlns:inkscape="http://www.inkscape.org/namespaces/inkscape"
   width="306"
   height="198"
   viewBox="0 0 306 198"
   fill="none"
   id="svg2"
   version="1.1"
   inkscape:version="0.48.4 r9939"
   sodipodi:docname="Group.svg">
  <metadata
     id="metadata74">
    <rdf:RDF>
      <cc:Work
         rdf:about="">
        <dc:format>image/svg+xml</dc:format>
        <dc:type
           rdf:resource="http://purl.org/dc/dcmitype/StillImage" />
        <dc:title></dc:title>
      </cc:Work>
    </rdf:RDF>
  </metadata>
  <defs
     id="defs72" />
  <sodipodi:namedview
     pagecolor="#ffffff"
     bordercolor="#666666"
     borderopacity="1"
     objecttolerance="10"
     gridtolerance="10"
     guidetolerance="10"
     inkscape:pageopacity="0"
     inkscape:pageshadow="2"
     inkscape:window-width="1233"
     inkscape:window-height="911"
     id="namedview70"
     showgrid="false"
     inkscape:zoom="1.06"
     inkscape:cx="139.65441"
     inkscape:cy="81.420375"
     inkscape:window-x="128"
     inkscape:window-y="92"
     inkscape:window-maximized="0"
     inkscape:current-layer="svg2" />
  <path
     d="m 132,162 h -24 l -9,-18 9,-18 h 24 l 9,18 -9,18 z"
     id="path4"
     inkscape:connector-curvature="0"
     style="fill:#2e3038" />
  <path
     d="m 132,198 h -24 l -9,-18 9,-18 h 24 l 9,18 -9,18 z"
     id="path6"
     inkscape:connector-curvature="0"
     style="fill:#2e3038" />
  <path
     d="m 165,144 h -24 l -9,-18 9,-18 h 24 l 9,18 -9,18 z"
     id="path8"
     inkscape:connector-curvature="0"
     style="fill:#2e3038" />
  <path
     d="m 132,126 h -24 l -9,-18 9,-18 h 24 l 9,18 -9,18 z"
     id="path10"
     inkscape:connector-curvature="0"
     style="fill:#2e3038" />
  <path
     d="M 66,162 H 42 l -9,-18 9,-18 h 24 l 9,18 -9,18 z"
     id="path12"
     inkscape:connector-curvature="0"
     style="fill:#2e3038" />
  <path
     d="M 33,144 H 9 L 0,126 9,108 h 24 l 9,18 -9,18 z"
     id="path14"
     inkscape:connector-curvature="0"
     style="fill:#2e3038" />
  <path
     d="M 99,180 H 75 l -9,-18 9,-18 h 24 l 9,18 -9,18 z"
     id="path16"
     inkscape:connector-curvature="0"
     style="fill:#2e3038" />
  <path
     d="m 165,36 h -24 l -9,-18 9,-18 h 24 l 9,18 -9,18 z"
     id="path18"
     inkscape:connector-curvature="0"
     style="fill:#2e3038" />
  <path
     d="m 132,90 h -24 l -9,-18 9,-18 h 24 l 9,18 -9,18 z"
     id="path20"
     inkscape:connector-curvature="0"
     style="fill:#2e3038" />
  <path
     d="m 165,72 h -24 l -9,-18 9,-18 h 24 l 9,18 -9,18 z"
     id="path22"
     inkscape:connector-curvature="0"
     style="fill:#2e3038" />
  <path
     d="m 132,54 h -24 l -9,-18 9,-18 h 24 l 9,18 -9,18 z"
     id="path24"
     inkscape:connector-curvature="0"
     style="fill:#2e3038" />
  <path
     d="M 66,90 H 42 L 33,72 42,54 h 24 l 9,18 -9,18 z"
     id="path26"
     inkscape:connector-curvature="0"
     style="fill:#fdb811" />
  <path
     d="M 99,72 H 75 L 66,54 75,36 h 24 l 9,18 -9,18 z"
     id="path28"
     inkscape:connector-curvature="0"
     style="fill:#2e3038" />
  <path
     d="M 33,72 H 9 L 0,54 9,36 h 24 l 9,18 -9,18 z"
     id="path30"
     inkscape:connector-curvature="0"
     style="fill:#2e3038" />
  <path
     d="M 66,54 H 42 L 33,36 42,18 h 24 l 9,18 -9,18 z"
     id="path32"
     inkscape:connector-curvature="0"
     style="fill:#2e3038" />
  <path
     d="m 264,162 h -24 l -9,-18 9,-18 h 24 l 9,18 -9,18 z"
     id="path34"
     inkscape:connector-curvature="0"
     style="fill:#2e3038" />
  <path
     d="m 264,198 h -24 l -9,-18 9,-18 h 24 l 9,18 -9,18 z"
     id="path36"
     inkscape:connector-curvature="0"
     style="fill:#2e3038" />
  <path
     d="m 297,144 h -24 l -9,-18 9,-18 h 24 l 9,18 -9,18 z"
     id="path38"
     inkscape:connector-curvature="0"
     style="fill:#2e3038" />
  <path
     d="m 264,126 h -24 l -9,-18 9,-18 h 24 l 9,18 -9,18 z"
     id="path40"
     inkscape:connector-curvature="0"
     style="fill:#2e3038" />
  <path
     d="m 198,162 h -24 l -9,-18 9,-18 h 24 l 9,18 -9,18 z"
     id="path42"
     inkscape:connector-curvature="0"
     style="fill:#2e3038" />
  <path
     d="m 165,180 h -24 l -9,-18 9,-18 h 24 l 9,18 -9,18 z"
     id="path44"
     inkscape:connector-curvature="0"
     style="fill:#2e3038" />
  <path
     d="m 231,144 h -24 l -9,-18 9,-18 h 24 l 9,18 -9,18 z"
     id="path46"
     inkscape:connector-curvature="0"
     style="fill:#2e3038" />
  <path
     d="m 231,180 h -24 l -9,-18 9,-18 h 24 l 9,18 -9,18 z"
     id="path48"
     inkscape:connector-curvature="0"
     style="fill:#2e3038" />
  <path
     d="m 198,126 h -24 l -9,-18 9,-18 h 24 l 9,18 -9,18 z"
     id="path50"
     inkscape:connector-curvature="0"
     style="fill:#2e3038" />
  <path
     d="m 297,72 h -24 l -9,-18 9,-18 h 24 l 9,18 -9,18 z"
     id="path52"
     inkscape:connector-curvature="0"
     style="fill:#2e3038" />
  <path
     d="m 264,54 h -24 l -9,-18 9,-18 h 24 l 9,18 -9,18 z"
     id="path54"
     inkscape:connector-curvature="0"
     style="fill:#2e3038" />
  <path
     d="m 165,108 h -24 l -9,-18 9,-18 h 24 l 9,18 -9,18 z"
     id="path56"
     inkscape:connector-curvature="0"
     style="fill:#2e3038" />
  <path
     d="m 231,72 h -24 l -9,-18 9,-18 h 24 l 9,18 -9,18 z"
     id="path58"
     inkscape:connector-curvature="0"
     style="fill:#2e3038" />
  <path
     d="m 297,36 h -24 l -9,-18 9,-18 h 24 l 9,18 -9,18 z"
     id="path60"
     inkscape:connector-curvature="0"
     style="fill:#2e3038" />
  <path
     d="m 231,108 h -24 l -9,-18 9,-18 h 24 l 9,18 -9,18 z"
     id="path62"
     inkscape:connector-curvature="0"
     style="fill:#2e3038" />
  <path
     d="M 99,144 H 75 l -9,-18 9,-18 h 24 l 9,18 -9,18 z"
     id="path64"
     inkscape:connector-curvature="0"
     style="fill:#2e3038" />
  <path
     d="m 198,54 h -24 l -9,-18 9,-18 h 24 l 9,18 -9,18 z"
     id="path66"
     inkscape:connector-curvature="0"
     style="fill:#2e3038" />
  <path
     d="M 99,108 H 75 L 66,90 75,72 h 24 l 9,18 -9,18 z"
     id="path68"
     inkscape:connector-curvature="0"
     style="fill:#2e3038" />
  <g
     transform="translate(-1.1122661,-0.83159539)"
     style="opacity:0.5"
     id="g4">
    <path
       style="stroke:#44464f"
       inkscape:connector-curvature="0"
       d="m 133,163 h -24 l -9,-18 9,-18 h 24 l 9,18 -9,18 z"
       id="path6-3" />
    <path
       style="stroke:#44464f"
       inkscape:connector-curvature="0"
       d="m 133,199 h -24 l -9,-18 9,-18 h 24 l 9,18 -9,18 z"
       id="path8-6" />
    <path
       style="stroke:#44464f"
       inkscape:connector-curvature="0"
       d="m 166,145 h -24 l -9,-18 9,-18 h 24 l 9,18 -9,18 z"
       id="path10-7" />
    <path
       style="stroke:#44464f"
       inkscape:connector-curvature="0"
       d="m 133,127 h -24 l -9,-18 9,-18 h 24 l 9,18 -9,18 z"
       id="path12-5" />
    <path
       style="stroke:#44464f"
       inkscape:connector-curvature="0"
       d="M 67,163 H 43 l -9,-18 9,-18 h 24 l 9,18 -9,18 z"
       id="path14-3" />
    <path
       style="stroke:#44464f"
       inkscape:connector-curvature="0"
       d="M 34,181 H 10 L 0.999998,163 10,145 h 24 l 9,18 -9,18 z"
       id="path16-5" />
    <path
       style="stroke:#44464f"
       inkscape:connector-curvature="0"
       d="M 67,199 H 43 l -9,-18 9,-18 h 24 l 9,18 -9,18 z"
       id="path18-6" />
    <path
       style="stroke:#44464f"
       inkscape:connector-curvature="0"
       d="M 34,145 H 10 L 0.999998,127 10,109 h 24 l 9,18 -9,18 z"
       id="path20-2" />
    <path
       style="stroke:#44464f"
       inkscape:connector-curvature="0"
       d="M 100,181 H 76 l -9,-18 9,-18 h 24 l 9,18 -9,18 z"
       id="path22-9" />
    <path
       style="stroke:#44464f"
       inkscape:connector-curvature="0"
       d="m 166,37 h -24 l -9,-18 9,-18.000001 h 24 L 175,19 166,37 z"
       id="path24-1" />
    <path
       style="stroke:#44464f"
       inkscape:connector-curvature="0"
       d="m 133,91 h -24 l -9,-18 9,-18 h 24 l 9,18 -9,18 z"
       id="path26-2" />
    <path
       style="stroke:#44464f"
       inkscape:connector-curvature="0"
       d="m 166,73 h -24 l -9,-18 9,-18 h 24 l 9,18 -9,18 z"
       id="path28-7" />
    <path
       style="stroke:#44464f"
       inkscape:connector-curvature="0"
       d="m 133,55 h -24 l -9,-18 9,-18 h 24 l 9,18 -9,18 z"
       id="path30-0" />
    <path
       style="stroke:#44464f"
       inkscape:connector-curvature="0"
       d="M 67,91 H 43 L 34,73 43,55 h 24 l 9,18 -9,18 z"
       id="path32-9" />
    <path
       style="stroke:#44464f"
       inkscape:connector-curvature="0"
       d="M 34,109 H 10 L 0.999998,91 10,73 h 24 l 9,18 -9,18 z"
       id="path34-3" />
    <path
       style="stroke:#44464f"
       inkscape:connector-curvature="0"
       d="M 100,73 H 76 L 67,55 76,37 h 24 l 9,18 -9,18 z"
       id="path36-6" />
    <path
       style="stroke:#44464f"
       inkscape:connector-curvature="0"
       d="M 100,37 H 76 L 67,19 76,0.999999 h 24 L 109,19 100,37 z"
       id="path38-0" />
    <path
       style="stroke:#44464f"
       inkscape:connector-curvature="0"
       d="M 34,73 H 10 L 0.999998,55 10,37 h 24 l 9,18 -9,18 z"
       id="path40-6" />
    <path
       style="stroke:#44464f"
       inkscape:connector-curvature="0"
       d="M 67,55 H 43 L 34,37 43,19 h 24 l 9,18 -9,18 z"
       id="path42-2" />
    <path
       style="stroke:#44464f"
       inkscape:connector-curvature="0"
       d="m 265,163 h -24 l -9,-18 9,-18 h 24 l 9,18 -9,18 z"
       id="path44-6" />
    <path
       style="stroke:#44464f"
       inkscape:connector-curvature="0"
       d="m 265,199 h -24 l -9,-18 9,-18 h 24 l 9,18 -9,18 z"
       id="path46-1" />
    <path
       style="stroke:#44464f"
       inkscape:connector-curvature="0"
       d="m 298,145 h -24 l -9,-18 9,-18 h 24 l 9,18 -9,18 z"
       id="path48-8" />
    <path
       style="stroke:#44464f"
       inkscape:connector-curvature="0"
       d="m 265,127 h -24 l -9,-18 9,-18 h 24 l 9,18 -9,18 z"
       id="path50-7" />
    <path
       style="stroke:#44464f"
       inkscape:connector-curvature="0"
       d="m 199,163 h -24 l -9,-18 9,-18 h 24 l 9,18 -9,18 z"
       id="path52-9" />
    <path
       style="stroke:#44464f"
       inkscape:connector-curvature="0"
       d="m 166,181 h -24 l -9,-18 9,-18 h 24 l 9,18 -9,18 z"
       id="path54-2" />
    <path
       style="stroke:#44464f"
       inkscape:connector-curvature="0"
       d="m 199,199 h -24 l -9,-18 9,-18 h 24 l 9,18 -9,18 z"
       id="path56-0" />
    <path
       style="stroke:#44464f"
       inkscape:connector-curvature="0"
       d="m 232,145 h -24 l -9,-18 9,-18 h 24 l 9,18 -9,18 z"
       id="path58-2" />
    <path
       style="stroke:#44464f"
       inkscape:connector-curvature="0"
       d="m 232,181 h -24 l -9,-18 9,-18 h 24 l 9,18 -9,18 z"
       id="path60-3" />
    <path
       style="stroke:#44464f"
       inkscape:connector-curvature="0"
       d="m 199,127 h -24 l -9,-18 9,-18 h 24 l 9,18 -9,18 z"
       id="path62-7" />
    <path
       style="stroke:#44464f"
       inkscape:connector-curvature="0"
       d="m 265,91 h -24 l -9,-18 9,-18 h 24 l 9,18 -9,18 z"
       id="path64-5" />
    <path
       style="stroke:#44464f"
       inkscape:connector-curvature="0"
       d="m 298,73 h -24 l -9,-18 9,-18 h 24 l 9,18 -9,18 z"
       id="path66-9" />
    <path
       style="stroke:#44464f"
       inkscape:connector-curvature="0"
       d="m 265,55 h -24 l -9,-18 9,-18 h 24 l 9,18 -9,18 z"
       id="path68-2" />
    <path
       style="stroke:#44464f"
       inkscape:connector-curvature="0"
       d="m 199,91 h -24 l -9,-18 9,-18 h 24 l 9,18 -9,18 z"
       id="path70" />
    <path
       style="stroke:#44464f"
       inkscape:connector-curvature="0"
       d="m 166,109 h -24 l -9,-18 9,-18 h 24 l 9,18 -9,18 z"
       id="path72" />
    <path
       style="stroke:#44464f"
       inkscape:connector-curvature="0"
       d="m 232,73 h -24 l -9,-18 9,-18 h 24 l 9,18 -9,18 z"
       id="path74" />
    <path
       style="stroke:#44464f"
       inkscape:connector-curvature="0"
       d="m 298,37 h -24 l -9,-18 9,-18.000001 h 24 L 307,19 298,37 z"
       id="path76" />
    <path
       style="stroke:#44464f"
       inkscape:connector-curvature="0"
       d="m 232,109 h -24 l -9,-18 9,-18 h 24 l 9,18 -9,18 z"
       id="path78" />
    <path
       style="stroke:#44464f"
       inkscape:connector-curvature="0"
       d="m 199,55 h -24 l -9,-18 9,-18 h 24 l 9,18 -9,18 z"
       id="path80" />
    <path
       style="stroke:#44464f"
       inkscape:connector-curvature="0"
       d="M 67,127 H 43 l -9,-18 9,-18 h 24 l 9,18 -9,18 z"
       id="path82" />
    <path
       style="stroke:#44464f"
       inkscape:connector-curvature="0"
       d="M 100,109 H 76 L 67,91 76,73 h 24 l 9,18 -9,18 z"
       id="path84" />
  </g>
</svg>
