<?xml version="1.0" encoding="UTF-8" standalone="no"?>
<svg
   xmlns:dc="http://purl.org/dc/elements/1.1/"
   xmlns:cc="http://creativecommons.org/ns#"
   xmlns:rdf="http://www.w3.org/1999/02/22-rdf-syntax-ns#"
   xmlns:svg="http://www.w3.org/2000/svg"
   xmlns="http://www.w3.org/2000/svg"
   xmlns:sodipodi="http://sodipodi.sourceforge.net/DTD/sodipodi-0.dtd"
   xmlns:inkscape="http://www.inkscape.org/namespaces/inkscape"
   width="340"
   height="217"
   viewBox="0 0 340 217"
   id="svg2"
   version="1.1"
   inkscape:version="0.48.4 r9939"
   sodipodi:docname="Group.svg"
   style="fill:none">
  <metadata
     id="metadata76">
    <rdf:RDF>
      <cc:Work
         rdf:about="">
        <dc:format>image/svg+xml</dc:format>
        <dc:type
           rdf:resource="http://purl.org/dc/dcmitype/StillImage" />
        <dc:title></dc:title>
      </cc:Work>
    </rdf:RDF>
  </metadata>
  <defs
     id="defs74" />
  <sodipodi:namedview
     pagecolor="#ffffff"
     bordercolor="#666666"
     borderopacity="1"
     objecttolerance="10"
     gridtolerance="10"
     guidetolerance="10"
     inkscape:pageopacity="0"
     inkscape:pageshadow="2"
     inkscape:window-width="1549"
     inkscape:window-height="894"
     id="namedview72"
     showgrid="false"
     fit-margin-top="0"
     fit-margin-left="0"
     fit-margin-right="0"
     fit-margin-bottom="0"
     inkscape:zoom="2.7032755"
     inkscape:cx="134.60941"
     inkscape:cy="100.86992"
     inkscape:window-x="330"
     inkscape:window-y="182"
     inkscape:window-maximized="0"
     inkscape:current-layer="svg2" />
  <path
     d="m 132.35769,36.480414 h -24 l -8.999999,18 8.999999,18 h 24 l 9,-18 -9,-18 z"
     id="path4"
     inkscape:connector-curvature="0"
     style="fill:#2e3038" />
  <path
     d="M 33.357691,54.480414 H 9.3576914 l -9,18 9,18 H 33.357691 l 9,-18 -9,-18 z"
     id="path6"
     inkscape:connector-curvature="0"
     style="fill:#2e3038" />
  <path
     d="m 165.35769,54.480414 h -24 l -9,18 9,18 h 24 l 9,-18 -9,-18 z"
     id="path8"
     inkscape:connector-curvature="0"
     style="fill:#2e3038" />
  <path
     d="m 132.35769,72.480414 h -24 l -8.999999,18 8.999999,17.999996 h 24 l 9,-17.999996 -9,-18 z"
     id="path10"
     inkscape:connector-curvature="0"
     style="fill:#2e3038" />
  <path
     d="m 66.357691,36.480414 h -24 l -9,18 9,18 h 24 l 9,-18 -9,-18 z"
     id="path12"
     inkscape:connector-curvature="0"
     style="fill:#f36e1e" />
  <path
     d="m 66.357691,0.4804144 h -24 l -9,17.9999996 9,18 h 24 l 9,-18 -9,-17.9999996 z"
     id="path14"
     inkscape:connector-curvature="0"
     style="fill:#2e3038" />
  <path
     d="m 99.357691,54.480414 h -24 l -9,18 9,18 h 24 l 8.999999,-18 -8.999999,-18 z"
     id="path16"
     inkscape:connector-curvature="0"
     style="fill:#2e3038" />
  <path
     d="m 99.357691,18.480414 h -24 l -9,18 9,18 h 24 l 8.999999,-18 -8.999999,-18 z"
     id="path18"
     inkscape:connector-curvature="0"
     style="fill:#2e3038" />
  <path
     d="m 66.357691,72.480414 h -24 l -9,18 9,17.999996 h 24 l 9,-17.999996 -9,-18 z"
     id="path20"
     inkscape:connector-curvature="0"
     style="fill:#2e3038" />
  <path
     d="m 132.35769,108.48041 h -24 l -8.999999,18 8.999999,18 h 24 l 9,-18 -9,-18 z"
     id="path22"
     inkscape:connector-curvature="0"
     style="fill:#2e3038" />
  <path
     d="m 165.35769,126.48041 h -24 l -9,18 9,18 h 24 l 9,-18 -9,-18 z"
     id="path24"
     inkscape:connector-curvature="0"
     style="fill:#2e3038" />
  <path
     d="m 132.35769,144.48041 h -24 l -8.999999,18 8.999999,18 h 24 l 9,-18 -9,-18 z"
     id="path26"
     inkscape:connector-curvature="0"
     style="fill:#2e3038" />
  <path
     d="m 99.357691,126.48041 h -24 l -9,18 9,18 h 24 l 8.999999,-18 -8.999999,-18 z"
     id="path28"
     inkscape:connector-curvature="0"
     style="fill:#2e3038" />
  <path
     d="m 99.357691,90.480414 h -24 l -9,17.999996 9,18 h 24 l 8.999999,-18 -8.999999,-17.999996 z"
     id="path30"
     inkscape:connector-curvature="0"
     style="fill:#2e3038" />
  <path
     d="m 66.357691,144.48041 h -24 l -9,18 9,18 h 24 l 9,-18 -9,-18 z"
     id="path32"
     inkscape:connector-curvature="0"
     style="fill:#2e3038" />
  <path
     d="m 264.35769,36.480414 h -24 l -9,18 9,18 h 24 l 9,-18 -9,-18 z"
     id="path34"
     inkscape:connector-curvature="0"
     style="fill:#2e3038" />
  <path
     d="m 264.35769,0.4804144 h -24 l -9,17.9999996 9,18 h 24 l 9,-18 -9,-17.9999996 z"
     id="path36"
     inkscape:connector-curvature="0"
     style="fill:#2e3038" />
  <path
     d="m 330.35769,36.480414 h -24 l -9,18 9,18 h 24 l 9,-18 -9,-18 z"
     id="path38"
     inkscape:connector-curvature="0"
     style="fill:#2e3038" />
  <path
     d="m 264.35769,72.480414 h -24 l -9,18 9,17.999996 h 24 l 9,-17.999996 -9,-18 z"
     id="path40"
     inkscape:connector-curvature="0"
     style="fill:#2e3038" />
  <path
     d="m 231.35769,18.480414 h -24 l -9,18 9,18 h 24 l 9,-18 -9,-18 z"
     id="path42"
     inkscape:connector-curvature="0"
     style="fill:#2e3038" />
  <path
     d="m 165.35769,18.480414 h -24 l -9,18 9,18 h 24 l 9,-18 -9,-18 z"
     id="path44"
     inkscape:connector-curvature="0"
     style="fill:#2e3038" />
  <path
     d="m 198.35769,0.4804144 h -24 l -9,17.9999996 9,18 h 24 l 9,-18 -9,-17.9999996 z"
     id="path46"
     inkscape:connector-curvature="0"
     style="fill:#2e3038" />
  <path
     d="m 231.35769,54.480414 h -24 l -9,18 9,18 h 24 l 9,-18 -9,-18 z"
     id="path48"
     inkscape:connector-curvature="0"
     style="fill:#2e3038" />
  <path
     d="m 297.35769,18.480414 h -24 l -9,18 9,18 h 24 l 9,-18 -9,-18 z"
     id="path50"
     inkscape:connector-curvature="0"
     style="fill:#2e3038" />
  <path
     d="m 198.35769,72.480414 h -24 l -9,18 9,17.999996 h 24 l 9,-17.999996 -9,-18 z"
     id="path52"
     inkscape:connector-curvature="0"
     style="fill:#2e3038" />
  <path
     d="m 264.35769,108.48041 h -24 l -9,18 9,18 h 24 l 9,-18 -9,-18 z"
     id="path54"
     inkscape:connector-curvature="0"
     style="fill:#2e3038" />
  <path
     d="m 297.35769,126.48041 h -24 l -9,18 9,18 h 24 l 9,-18 -9,-18 z"
     id="path56"
     inkscape:connector-curvature="0"
     style="fill:#2e3038" />
  <path
     d="m 264.35769,144.48041 h -24 l -9,18 9,18 h 24 l 9,-18 -9,-18 z"
     id="path58"
     inkscape:connector-curvature="0"
     style="fill:#2e3038" />
  <path
     d="m 198.35769,108.48041 h -24 l -9,18 9,18 h 24 l 9,-18 -9,-18 z"
     id="path60"
     inkscape:connector-curvature="0"
     style="fill:#2e3038" />
  <path
     d="m 165.35769,90.480414 h -24 l -9,17.999996 9,18 h 24 l 9,-18 -9,-17.999996 z"
     id="path62"
     inkscape:connector-curvature="0"
     style="fill:#2e3038" />
  <path
     d="m 231.35769,126.48041 h -24 l -9,18 9,18 h 24 l 9,-18 -9,-18 z"
     id="path64"
     inkscape:connector-curvature="0"
     style="fill:#2e3038" />
  <path
     d="m 231.35769,162.48041 h -24 l -9,18 9,18 h 24 l 9,-18 -9,-18 z"
     id="path66"
     inkscape:connector-curvature="0"
     style="fill:#2e3038" />
  <path
     d="m 231.35769,90.480414 h -24 l -9,17.999996 9,18 h 24 l 9,-18 -9,-17.999996 z"
     id="path68"
     inkscape:connector-curvature="0"
     style="fill:#2e3038" />
  <path
     d="m 165.35769,162.48041 h -24 l -9,18 9,18 h 24 l 9,-18 -9,-18 z"
     id="path70"
     inkscape:connector-curvature="0"
     style="fill:#2e3038" />
  <g
     transform="translate(-0.499998,-0.5)"
     style="opacity:0.5"
     id="g4">
    <path
       style="stroke:#44464f"
       inkscape:connector-curvature="0"
       d="m 133,37 h -24 l -9,18 9,18 h 24 l 9,-18 -9,-18 z"
       id="path6-3" />
    <path
       style="stroke:#44464f"
       inkscape:connector-curvature="0"
       d="M 34,55 H 10 L 0.999998,73 10,91 H 34 L 43,73 34,55 z"
       id="path8-6" />
    <path
       style="stroke:#44464f"
       inkscape:connector-curvature="0"
       d="m 166,55 h -24 l -9,18 9,18 h 24 l 9,-18 -9,-18 z"
       id="path10-7" />
    <path
       style="stroke:#44464f"
       inkscape:connector-curvature="0"
       d="m 133,73 h -24 l -9,18 9,18 h 24 l 9,-18 -9,-18 z"
       id="path12-5" />
    <path
       style="stroke:#44464f"
       inkscape:connector-curvature="0"
       d="M 67,37 H 43 l -9,18 9,18 H 67 L 76,55 67,37 z"
       id="path14-3" />
    <path
       style="stroke:#44464f"
       inkscape:connector-curvature="0"
       d="M 34,19 H 10 L 0.999998,37 10,55 H 34 L 43,37 34,19 z"
       id="path16-5" />
    <path
       style="stroke:#44464f"
       inkscape:connector-curvature="0"
       d="M 67,1 H 43 l -9,18 9,18 H 67 L 76,19 67,1 z"
       id="path18-6" />
    <path
       style="stroke:#44464f"
       inkscape:connector-curvature="0"
       d="M 100,55 H 76 l -9,18 9,18 h 24 l 9,-18 -9,-18 z"
       id="path20-2" />
    <path
       style="stroke:#44464f"
       inkscape:connector-curvature="0"
       d="M 100,19 H 76 l -9,18 9,18 h 24 l 9,-18 -9,-18 z"
       id="path22-9" />
    <path
       style="stroke:#44464f"
       inkscape:connector-curvature="0"
       d="M 67,73 H 43 l -9,18 9,18 H 67 L 76,91 67,73 z"
       id="path24-1" />
    <path
       style="stroke:#44464f"
       inkscape:connector-curvature="0"
       d="m 133,109 h -24 l -9,18 9,18 h 24 l 9,-18 -9,-18 z"
       id="path26-2" />
    <path
       style="stroke:#44464f"
       inkscape:connector-curvature="0"
       d="m 166,127 h -24 l -9,18 9,18 h 24 l 9,-18 -9,-18 z"
       id="path28-7" />
    <path
       style="stroke:#44464f"
       inkscape:connector-curvature="0"
       d="m 133,145 h -24 l -9,18 9,18 h 24 l 9,-18 -9,-18 z"
       id="path30-0" />
    <path
       style="stroke:#44464f"
       inkscape:connector-curvature="0"
       d="M 67,109 H 43 l -9,18 9,18 h 24 l 9,-18 -9,-18 z"
       id="path32-9" />
    <path
       style="stroke:#44464f"
       inkscape:connector-curvature="0"
       d="M 34,91 H 10 L 0.999998,109 10,127 h 24 l 9,-18 -9,-18 z"
       id="path34-3" />
    <path
       style="stroke:#44464f"
       inkscape:connector-curvature="0"
       d="M 100,127 H 76 l -9,18 9,18 h 24 l 9,-18 -9,-18 z"
       id="path36-6" />
    <path
       style="stroke:#44464f"
       inkscape:connector-curvature="0"
       d="m 133,181 h -24 l -9,18 9,18 h 24 l 9,-18 -9,-18 z"
       id="path38-0" />
    <path
       style="stroke:#44464f"
       inkscape:connector-curvature="0"
       d="M 100,91 H 76 l -9,18 9,18 h 24 l 9,-18 -9,-18 z"
       id="path40-6" />
    <path
       style="stroke:#44464f"
       inkscape:connector-curvature="0"
       d="M 67,145 H 43 l -9,18 9,18 h 24 l 9,-18 -9,-18 z"
       id="path42-2" />
    <path
       style="stroke:#44464f"
       inkscape:connector-curvature="0"
       d="m 265,37 h -24 l -9,18 9,18 h 24 l 9,-18 -9,-18 z"
       id="path44-6" />
    <path
       style="stroke:#44464f"
       inkscape:connector-curvature="0"
       d="m 265,1 h -24 l -9,18 9,18 h 24 l 9,-18 -9,-18 z"
       id="path46-1" />
    <path
       style="stroke:#44464f"
       inkscape:connector-curvature="0"
       d="m 331,37 h -24 l -9,18 9,18 h 24 l 9,-18 -9,-18 z"
       id="path48-8" />
    <path
       style="stroke:#44464f"
       inkscape:connector-curvature="0"
       d="m 265,73 h -24 l -9,18 9,18 h 24 l 9,-18 -9,-18 z"
       id="path50-7" />
    <path
       style="stroke:#44464f"
       inkscape:connector-curvature="0"
       d="m 199,37 h -24 l -9,18 9,18 h 24 l 9,-18 -9,-18 z"
       id="path52-9" />
    <path
       style="stroke:#44464f"
       inkscape:connector-curvature="0"
       d="m 166,19 h -24 l -9,18 9,18 h 24 l 9,-18 -9,-18 z"
       id="path54-2" />
    <path
       style="stroke:#44464f"
       inkscape:connector-curvature="0"
       d="m 199,1 h -24 l -9,18 9,18 h 24 l 9,-18 -9,-18 z"
       id="path56-0" />
    <path
       style="stroke:#44464f"
       inkscape:connector-curvature="0"
       d="m 232,55 h -24 l -9,18 9,18 h 24 l 9,-18 -9,-18 z"
       id="path58-2" />
    <path
       style="stroke:#44464f"
       inkscape:connector-curvature="0"
       d="m 298,19 h -24 l -9,18 9,18 h 24 l 9,-18 -9,-18 z"
       id="path60-3" />
    <path
       style="stroke:#44464f"
       inkscape:connector-curvature="0"
       d="m 199,73 h -24 l -9,18 9,18 h 24 l 9,-18 -9,-18 z"
       id="path62-7" />
    <path
       style="stroke:#44464f"
       inkscape:connector-curvature="0"
       d="m 265,109 h -24 l -9,18 9,18 h 24 l 9,-18 -9,-18 z"
       id="path64-5" />
    <path
       style="stroke:#44464f"
       inkscape:connector-curvature="0"
       d="m 298,127 h -24 l -9,18 9,18 h 24 l 9,-18 -9,-18 z"
       id="path66-9" />
    <path
       style="stroke:#44464f"
       inkscape:connector-curvature="0"
       d="m 265,145 h -24 l -9,18 9,18 h 24 l 9,-18 -9,-18 z"
       id="path68-2" />
    <path
       style="stroke:#44464f"
       inkscape:connector-curvature="0"
       d="m 199,109 h -24 l -9,18 9,18 h 24 l 9,-18 -9,-18 z"
       id="path70-2" />
    <path
       style="stroke:#44464f"
       inkscape:connector-curvature="0"
       d="m 166,91 h -24 l -9,18 9,18 h 24 l 9,-18 -9,-18 z"
       id="path72" />
    <path
       style="stroke:#44464f"
       inkscape:connector-curvature="0"
       d="m 232,127 h -24 l -9,18 9,18 h 24 l 9,-18 -9,-18 z"
       id="path74" />
    <path
       style="stroke:#44464f"
       inkscape:connector-curvature="0"
       d="m 232,163 h -24 l -9,18 9,18 h 24 l 9,-18 -9,-18 z"
       id="path76" />
    <path
       style="stroke:#44464f"
       inkscape:connector-curvature="0"
       d="m 232,91 h -24 l -9,18 9,18 h 24 l 9,-18 -9,-18 z"
       id="path78" />
    <path
       style="stroke:#44464f"
       inkscape:connector-curvature="0"
       d="m 166,163 h -24 l -9,18 9,18 h 24 l 9,-18 -9,-18 z"
       id="path80" />
    <path
       style="stroke:#44464f"
       inkscape:connector-curvature="0"
       d="m 298,55 h -24 l -9,18 9,18 h 24 l 9,-18 -9,-18 z"
       id="path82" />
    <path
       style="stroke:#44464f"
       inkscape:connector-curvature="0"
       d="m 199,145 h -24 l -9,18 9,18 h 24 l 9,-18 -9,-18 z"
       id="path84" />
  </g>
</svg>
