<?xml version="1.0" encoding="UTF-8" standalone="no"?>
<svg
   xmlns:dc="http://purl.org/dc/elements/1.1/"
   xmlns:cc="http://creativecommons.org/ns#"
   xmlns:rdf="http://www.w3.org/1999/02/22-rdf-syntax-ns#"
   xmlns:svg="http://www.w3.org/2000/svg"
   xmlns="http://www.w3.org/2000/svg"
   xmlns:sodipodi="http://sodipodi.sourceforge.net/DTD/sodipodi-0.dtd"
   xmlns:inkscape="http://www.inkscape.org/namespaces/inkscape"
   width="307"
   height="217"
   viewBox="0 0 307 217"
   id="svg2"
   version="1.1"
   inkscape:version="0.48.4 r9939"
   sodipodi:docname="facts2.svg"
   style="fill:none">
  <metadata
     id="metadata76">
    <rdf:RDF>
      <cc:Work
         rdf:about="">
        <dc:format>image/svg+xml</dc:format>
        <dc:type
           rdf:resource="http://purl.org/dc/dcmitype/StillImage" />
        <dc:title />
      </cc:Work>
    </rdf:RDF>
  </metadata>
  <defs
     id="defs74" />
  <sodipodi:namedview
     pagecolor="#ffffff"
     bordercolor="#666666"
     borderopacity="1"
     objecttolerance="10"
     gridtolerance="10"
     guidetolerance="10"
     inkscape:pageopacity="0"
     inkscape:pageshadow="2"
     inkscape:window-width="1549"
     inkscape:window-height="894"
     id="namedview72"
     showgrid="false"
     fit-margin-top="0"
     fit-margin-left="0"
     fit-margin-right="0"
     fit-margin-bottom="0"
     inkscape:zoom="2.7032755"
     inkscape:cx="134.60941"
     inkscape:cy="100.86992"
     inkscape:window-x="330"
     inkscape:window-y="182"
     inkscape:window-maximized="0"
     inkscape:current-layer="svg2" />
  <path
     d="m 132.35769,36.480414 h -24 l -8.999999,18 8.999999,18 h 24 l 9,-18 -9,-18 z"
     id="path4"
     inkscape:connector-curvature="0"
     style="fill:#2e3038" />
  <path
     d="M 33.357691,54.480414 H 9.3576914 l -9,18 9,18 H 33.357691 l 9,-18 -9,-18 z"
     id="path6"
     inkscape:connector-curvature="0"
     style="fill:#2e3038" />
  <path
     d="m 165.35769,54.480414 h -24 l -9,18 9,18 h 24 l 9,-18 -9,-18 z"
     id="path8"
     inkscape:connector-curvature="0"
     style="fill:#2e3038" />
  <path
     d="m 132.35769,72.480414 h -24 l -8.999999,18 8.999999,17.999996 h 24 l 9,-17.999996 -9,-18 z"
     id="path10"
     inkscape:connector-curvature="0"
     style="fill:#2e3038" />
  <path
     d="m 66.357691,36.480414 h -24 l -9,18 9,18 h 24 l 9,-18 -9,-18 z"
     id="path12"
     inkscape:connector-curvature="0"
     style="fill:#f36e1e" />
  <path
     d="m 66.357691,0.4804144 h -24 l -9,17.9999996 9,18 h 24 l 9,-18 -9,-17.9999996 z"
     id="path14"
     inkscape:connector-curvature="0"
     style="fill:#2e3038" />
  <path
     d="m 99.357691,54.480414 h -24 l -9,18 9,18 h 24 l 8.999999,-18 -8.999999,-18 z"
     id="path16"
     inkscape:connector-curvature="0"
     style="fill:#2e3038" />
  <path
     d="m 99.357691,18.480414 h -24 l -9,18 9,18 h 24 l 8.999999,-18 -8.999999,-18 z"
     id="path18"
     inkscape:connector-curvature="0"
     style="fill:#2e3038" />
  <path
     d="m 66.357691,72.480414 h -24 l -9,18 9,17.999996 h 24 l 9,-17.999996 -9,-18 z"
     id="path20"
     inkscape:connector-curvature="0"
     style="fill:#2e3038" />
  <path
     d="m 132.35769,108.48041 h -24 l -8.999999,18 8.999999,18 h 24 l 9,-18 -9,-18 z"
     id="path22"
     inkscape:connector-curvature="0"
     style="fill:#2e3038" />
  <path
     d="m 165.35769,126.48041 h -24 l -9,18 9,18 h 24 l 9,-18 -9,-18 z"
     id="path24"
     inkscape:connector-curvature="0"
     style="fill:#2e3038" />
  <path
     d="m 132.35769,144.48041 h -24 l -8.999999,18 8.999999,18 h 24 l 9,-18 -9,-18 z"
     id="path26"
     inkscape:connector-curvature="0"
     style="fill:#2e3038" />
  <path
     d="m 99.357691,126.48041 h -24 l -9,18 9,18 h 24 l 8.999999,-18 -8.999999,-18 z"
     id="path28"
     inkscape:connector-curvature="0"
     style="fill:#2e3038" />
  <path
     d="m 99.357691,90.480414 h -24 l -9,17.999996 9,18 h 24 l 8.999999,-18 -8.999999,-17.999996 z"
     id="path30"
     inkscape:connector-curvature="0"
     style="fill:#2e3038" />
  <path
     d="m 66.357691,144.48041 h -24 l -9,18 9,18 h 24 l 9,-18 -9,-18 z"
     id="path32"
     inkscape:connector-curvature="0"
     style="fill:#2e3038" />
  <path
     d="m 264.35769,36.480414 h -24 l -9,18 9,18 h 24 l 9,-18 -9,-18 z"
     id="path34"
     inkscape:connector-curvature="0"
     style="fill:#2e3038" />
  <path
     d="m 264.35769,0.4804144 h -24 l -9,17.9999996 9,18 h 24 l 9,-18 -9,-17.9999996 z"
     id="path36"
     inkscape:connector-curvature="0"
     style="fill:#2e3038" />
  <path
     d="m 264.35769,72.480414 h -24 l -9,18 9,17.999996 h 24 l 9,-17.999996 -9,-18 z"
     id="path40"
     inkscape:connector-curvature="0"
     style="fill:#2e3038" />
  <path
     d="m 231.35769,18.480414 h -24 l -9,18 9,18 h 24 l 9,-18 -9,-18 z"
     id="path42"
     inkscape:connector-curvature="0"
     style="fill:#2e3038" />
  <path
     d="m 165.35769,18.480414 h -24 l -9,18 9,18 h 24 l 9,-18 -9,-18 z"
     id="path44"
     inkscape:connector-curvature="0"
     style="fill:#2e3038" />
  <path
     d="m 198.35769,0.4804144 h -24 l -9,17.9999996 9,18 h 24 l 9,-18 -9,-17.9999996 z"
     id="path46"
     inkscape:connector-curvature="0"
     style="fill:#2e3038" />
  <path
     d="m 231.35769,54.480414 h -24 l -9,18 9,18 h 24 l 9,-18 -9,-18 z"
     id="path48"
     inkscape:connector-curvature="0"
     style="fill:#2e3038" />
  <path
     d="m 297.35769,18.480414 h -24 l -9,18 9,18 h 24 l 9,-18 -9,-18 z"
     id="path50"
     inkscape:connector-curvature="0"
     style="fill:#2e3038" />
  <path
     d="m 198.35769,72.480414 h -24 l -9,18 9,17.999996 h 24 l 9,-17.999996 -9,-18 z"
     id="path52"
     inkscape:connector-curvature="0"
     style="fill:#2e3038" />
  <path
     d="m 264.35769,108.48041 h -24 l -9,18 9,18 h 24 l 9,-18 -9,-18 z"
     id="path54"
     inkscape:connector-curvature="0"
     style="fill:#2e3038" />
  <path
     d="m 297.35769,126.48041 h -24 l -9,18 9,18 h 24 l 9,-18 -9,-18 z"
     id="path56"
     inkscape:connector-curvature="0"
     style="fill:#2e3038" />
  <path
     d="m 264.35769,144.48041 h -24 l -9,18 9,18 h 24 l 9,-18 -9,-18 z"
     id="path58"
     inkscape:connector-curvature="0"
     style="fill:#2e3038" />
  <path
     d="m 198.35769,108.48041 h -24 l -9,18 9,18 h 24 l 9,-18 -9,-18 z"
     id="path60"
     inkscape:connector-curvature="0"
     style="fill:#2e3038" />
  <path
     d="m 165.35769,90.480414 h -24 l -9,17.999996 9,18 h 24 l 9,-18 -9,-17.999996 z"
     id="path62"
     inkscape:connector-curvature="0"
     style="fill:#2e3038" />
  <path
     d="m 231.35769,126.48041 h -24 l -9,18 9,18 h 24 l 9,-18 -9,-18 z"
     id="path64"
     inkscape:connector-curvature="0"
     style="fill:#2e3038" />
  <path
     d="m 231.35769,162.48041 h -24 l -9,18 9,18 h 24 l 9,-18 -9,-18 z"
     id="path66"
     inkscape:connector-curvature="0"
     style="fill:#2e3038" />
  <path
     d="m 231.35769,90.480414 h -24 l -9,17.999996 9,18 h 24 l 9,-18 -9,-17.999996 z"
     id="path68"
     inkscape:connector-curvature="0"
     style="fill:#2e3038" />
  <path
     d="m 165.35769,162.48041 h -24 l -9,18 9,18 h 24 l 9,-18 -9,-18 z"
     id="path70"
     inkscape:connector-curvature="0"
     style="fill:#2e3038" />
  <path
     id="path6-3"
     d="m 132.5,36.5 h -24 l -8.999998,18 8.999998,18 h 24 l 9,-18 -9,-18 z"
     inkscape:connector-curvature="0"
     style="opacity:0.5;stroke:#44464f" />
  <path
     id="path8-6"
     d="m 33.500002,54.5 h -24 L 0.5,72.5 l 9.000002,18 h 24 l 9,-18 -9,-18 z"
     inkscape:connector-curvature="0"
     style="opacity:0.5;stroke:#44464f" />
  <path
     id="path10-7"
     d="m 165.5,54.5 h -24 l -9,18 9,18 h 24 l 9,-18 -9,-18 z"
     inkscape:connector-curvature="0"
     style="opacity:0.5;stroke:#44464f" />
  <path
     id="path12-5"
     d="m 132.5,72.5 h -24 l -8.999998,18 8.999998,18 h 24 l 9,-18 -9,-18 z"
     inkscape:connector-curvature="0"
     style="opacity:0.5;stroke:#44464f" />
  <path
     id="path14-3"
     d="m 66.500002,36.5 h -24 l -9,18 9,18 h 24 l 9,-18 -9,-18 z"
     inkscape:connector-curvature="0"
     style="opacity:0.5;stroke:#44464f" />
  <path
     id="path16-5"
     d="m 33.500002,18.5 h -24 L 0.5,36.5 l 9.000002,18 h 24 l 9,-18 -9,-18 z"
     inkscape:connector-curvature="0"
     style="opacity:0.5;stroke:#44464f" />
  <path
     id="path18-6"
     d="m 66.500002,0.5 h -24 l -9,18 9,18 h 24 l 9,-18 -9,-18 z"
     inkscape:connector-curvature="0"
     style="opacity:0.5;stroke:#44464f" />
  <path
     id="path20-2"
     d="m 99.500002,54.5 h -24 l -9,18 9,18 h 24 L 108.5,72.5 99.500002,54.5 z"
     inkscape:connector-curvature="0"
     style="opacity:0.5;stroke:#44464f" />
  <path
     id="path22-9"
     d="m 99.500002,18.5 h -24 l -9,18 9,18 h 24 L 108.5,36.5 99.500002,18.5 z"
     inkscape:connector-curvature="0"
     style="opacity:0.5;stroke:#44464f" />
  <path
     id="path24-1"
     d="m 66.500002,72.5 h -24 l -9,18 9,18 h 24 l 9,-18 -9,-18 z"
     inkscape:connector-curvature="0"
     style="opacity:0.5;stroke:#44464f" />
  <path
     id="path26-2"
     d="m 132.5,108.5 h -24 l -8.999998,18 8.999998,18 h 24 l 9,-18 -9,-18 z"
     inkscape:connector-curvature="0"
     style="opacity:0.5;stroke:#44464f" />
  <path
     id="path28-7"
     d="m 165.5,126.5 h -24 l -9,18 9,18 h 24 l 9,-18 -9,-18 z"
     inkscape:connector-curvature="0"
     style="opacity:0.5;stroke:#44464f" />
  <path
     id="path30-0"
     d="m 132.5,144.5 h -24 l -8.999998,18 8.999998,18 h 24 l 9,-18 -9,-18 z"
     inkscape:connector-curvature="0"
     style="opacity:0.5;stroke:#44464f" />
  <path
     id="path32-9"
     d="m 66.500002,108.5 h -24 l -9,18 9,18 h 24 l 9,-18 -9,-18 z"
     inkscape:connector-curvature="0"
     style="opacity:0.5;stroke:#44464f" />
  <path
     id="path34-3"
     d="m 33.500002,90.5 h -24 L 0.5,108.5 l 9.000002,18 h 24 l 9,-18 -9,-18 z"
     inkscape:connector-curvature="0"
     style="opacity:0.5;stroke:#44464f" />
  <path
     id="path36-6"
     d="m 99.500002,126.5 h -24 l -9,18 9,18 h 24 l 8.999998,-18 -8.999998,-18 z"
     inkscape:connector-curvature="0"
     style="opacity:0.5;stroke:#44464f" />
  <path
     id="path38-0"
     d="m 132.5,180.5 h -24 l -8.999998,18 8.999998,18 h 24 l 9,-18 -9,-18 z"
     inkscape:connector-curvature="0"
     style="opacity:0.5;stroke:#44464f" />
  <path
     id="path40-6"
     d="m 99.500002,90.5 h -24 l -9,18 9,18 h 24 l 8.999998,-18 -8.999998,-18 z"
     inkscape:connector-curvature="0"
     style="opacity:0.5;stroke:#44464f" />
  <path
     id="path42-2"
     d="m 66.500002,144.5 h -24 l -9,18 9,18 h 24 l 9,-18 -9,-18 z"
     inkscape:connector-curvature="0"
     style="opacity:0.5;stroke:#44464f" />
  <path
     id="path44-6"
     d="m 264.5,36.5 h -24 l -9,18 9,18 h 24 l 9,-18 -9,-18 z"
     inkscape:connector-curvature="0"
     style="opacity:0.5;stroke:#44464f" />
  <path
     id="path46-1"
     d="m 264.5,0.5 h -24 l -9,18 9,18 h 24 l 9,-18 -9,-18 z"
     inkscape:connector-curvature="0"
     style="opacity:0.5;stroke:#44464f" />
  <path
     id="path50-7"
     d="m 264.5,72.5 h -24 l -9,18 9,18 h 24 l 9,-18 -9,-18 z"
     inkscape:connector-curvature="0"
     style="opacity:0.5;stroke:#44464f" />
  <path
     id="path52-9"
     d="m 198.5,36.5 h -24 l -9,18 9,18 h 24 l 9,-18 -9,-18 z"
     inkscape:connector-curvature="0"
     style="opacity:0.5;stroke:#44464f" />
  <path
     id="path54-2"
     d="m 165.5,18.5 h -24 l -9,18 9,18 h 24 l 9,-18 -9,-18 z"
     inkscape:connector-curvature="0"
     style="opacity:0.5;stroke:#44464f" />
  <path
     id="path56-0"
     d="m 198.5,0.5 h -24 l -9,18 9,18 h 24 l 9,-18 -9,-18 z"
     inkscape:connector-curvature="0"
     style="opacity:0.5;stroke:#44464f" />
  <path
     id="path58-2"
     d="m 231.5,54.5 h -24 l -9,18 9,18 h 24 l 9,-18 -9,-18 z"
     inkscape:connector-curvature="0"
     style="opacity:0.5;stroke:#44464f" />
  <path
     id="path60-3"
     d="m 297.5,18.5 h -24 l -9,18 9,18 h 24 l 9,-18 -9,-18 z"
     inkscape:connector-curvature="0"
     style="opacity:0.5;stroke:#44464f" />
  <path
     id="path62-7"
     d="m 198.5,72.5 h -24 l -9,18 9,18 h 24 l 9,-18 -9,-18 z"
     inkscape:connector-curvature="0"
     style="opacity:0.5;stroke:#44464f" />
  <path
     id="path64-5"
     d="m 264.5,108.5 h -24 l -9,18 9,18 h 24 l 9,-18 -9,-18 z"
     inkscape:connector-curvature="0"
     style="opacity:0.5;stroke:#44464f" />
  <path
     id="path66-9"
     d="m 297.5,126.5 h -24 l -9,18 9,18 h 24 l 9,-18 -9,-18 z"
     inkscape:connector-curvature="0"
     style="opacity:0.5;stroke:#44464f" />
  <path
     id="path68-2"
     d="m 264.5,144.5 h -24 l -9,18 9,18 h 24 l 9,-18 -9,-18 z"
     inkscape:connector-curvature="0"
     style="opacity:0.5;stroke:#44464f" />
  <path
     id="path70-2"
     d="m 198.5,108.5 h -24 l -9,18 9,18 h 24 l 9,-18 -9,-18 z"
     inkscape:connector-curvature="0"
     style="opacity:0.5;stroke:#44464f" />
  <path
     id="path72"
     d="m 165.5,90.5 h -24 l -9,18 9,18 h 24 l 9,-18 -9,-18 z"
     inkscape:connector-curvature="0"
     style="opacity:0.5;stroke:#44464f" />
  <path
     id="path74"
     d="m 231.5,126.5 h -24 l -9,18 9,18 h 24 l 9,-18 -9,-18 z"
     inkscape:connector-curvature="0"
     style="opacity:0.5;stroke:#44464f" />
  <path
     id="path76"
     d="m 231.5,162.5 h -24 l -9,18 9,18 h 24 l 9,-18 -9,-18 z"
     inkscape:connector-curvature="0"
     style="opacity:0.5;stroke:#44464f" />
  <path
     id="path78"
     d="m 231.5,90.5 h -24 l -9,18 9,18 h 24 l 9,-18 -9,-18 z"
     inkscape:connector-curvature="0"
     style="opacity:0.5;stroke:#44464f" />
  <path
     id="path80"
     d="m 165.5,162.5 h -24 l -9,18 9,18 h 24 l 9,-18 -9,-18 z"
     inkscape:connector-curvature="0"
     style="opacity:0.5;stroke:#44464f" />
  <path
     id="path82"
     d="m 297.5,54.5 h -24 l -9,18 9,18 h 24 l 9,-18 -9,-18 z"
     inkscape:connector-curvature="0"
     style="opacity:0.5;stroke:#44464f" />
  <path
     id="path84"
     d="m 198.5,144.5 h -24 l -9,18 9,18 h 24 l 9,-18 -9,-18 z"
     inkscape:connector-curvature="0"
     style="opacity:0.5;stroke:#44464f" />
</svg>
