<?xml version="1.0" encoding="UTF-8" standalone="no"?>
<svg
   xmlns:dc="http://purl.org/dc/elements/1.1/"
   xmlns:cc="http://creativecommons.org/ns#"
   xmlns:rdf="http://www.w3.org/1999/02/22-rdf-syntax-ns#"
   xmlns:svg="http://www.w3.org/2000/svg"
   xmlns="http://www.w3.org/2000/svg"
   xmlns:sodipodi="http://sodipodi.sourceforge.net/DTD/sodipodi-0.dtd"
   xmlns:inkscape="http://www.inkscape.org/namespaces/inkscape"
   width="307.125"
   height="199"
   viewBox="0 0 307.125 199"
   id="svg2"
   version="1.1"
   inkscape:version="0.48.4 r9939"
   sodipodi:docname="Group.svg"
   style="fill:none">
  <metadata
     id="metadata68">
    <rdf:RDF>
      <cc:Work
         rdf:about="">
        <dc:format>image/svg+xml</dc:format>
        <dc:type
           rdf:resource="http://purl.org/dc/dcmitype/StillImage" />
        <dc:title></dc:title>
      </cc:Work>
    </rdf:RDF>
  </metadata>
  <defs
     id="defs66" />
  <sodipodi:namedview
     pagecolor="#ffffff"
     bordercolor="#666666"
     borderopacity="1"
     objecttolerance="10"
     gridtolerance="10"
     guidetolerance="10"
     inkscape:pageopacity="0"
     inkscape:pageshadow="2"
     inkscape:window-width="1693"
     inkscape:window-height="1041"
     id="namedview64"
     showgrid="false"
     fit-margin-top="0"
     fit-margin-left="0"
     fit-margin-right="0"
     fit-margin-bottom="0"
     inkscape:zoom="4.16"
     inkscape:cx="136.90442"
     inkscape:cy="96.899105"
     inkscape:window-x="171"
     inkscape:window-y="94"
     inkscape:window-maximized="0"
     inkscape:current-layer="svg2">
    <inkscape:grid
       type="xygrid"
       id="grid3331"
       empspacing="5"
       visible="true"
       enabled="true"
       snapvisiblegridlinesonly="true"
       originx="33.537043px"
       originy="0.5794793px" />
  </sodipodi:namedview>
  <path
     d="m 132.53704,36.420521 h -24 l -8.999997,18 8.999997,18 h 24 l 9,-18 -9,-18 z"
     id="path4"
     inkscape:connector-curvature="0"
     style="fill:#2e3038" />
  <path
     d="m 132.53704,0.4205207 h -24 l -8.999997,18.0000003 8.999997,18 h 24 l 9,-18 -9,-18.0000003 z"
     id="path6"
     inkscape:connector-curvature="0"
     style="fill:#2e3038" />
  <path
     d="m 165.53704,54.420521 h -24 l -9,18 9,18 h 24 l 9,-18 -9,-18 z"
     id="path8"
     inkscape:connector-curvature="0"
     style="fill:#2e3038" />
  <path
     d="m 132.53704,72.420521 h -24 l -8.999997,18 8.999997,17.999999 h 24 l 9,-17.999999 -9,-18 z"
     id="path10"
     inkscape:connector-curvature="0"
     style="fill:#2e3038" />
  <path
     d="m 66.537043,36.420521 h -24 l -9,18 9,18 h 24 l 9,-18 -9,-18 z"
     id="path12"
     inkscape:connector-curvature="0"
     style="fill:#ffffff" />
  <path
     d="m 99.537043,54.420521 h -24 l -9,18 9,18 h 24 l 8.999997,-18 -8.999997,-18 z"
     id="path14"
     inkscape:connector-curvature="0"
     style="fill:#2e3038" />
  <path
     d="m 99.537043,18.420521 h -24 l -9,18 9,18 h 24 l 8.999997,-18 -8.999997,-18 z"
     id="path16"
     inkscape:connector-curvature="0"
     style="fill:#2e3038" />
  <path
     d="m 66.537043,72.420521 h -24 l -9,18 9,17.999999 h 24 l 9,-17.999999 -9,-18 z"
     id="path18"
     inkscape:connector-curvature="0"
     style="fill:#2e3038" />
  <path
     d="m 132.53704,108.42052 h -24 l -8.999997,18 8.999997,18 h 24 l 9,-18 -9,-18 z"
     id="path20"
     inkscape:connector-curvature="0"
     style="fill:#2e3038" />
  <path
     d="m 165.53704,126.42052 h -24 l -9,18 9,18 h 24 l 9,-18 -9,-18 z"
     id="path22"
     inkscape:connector-curvature="0"
     style="fill:#2e3038" />
  <path
     d="m 132.53704,144.42052 h -24 l -8.999997,18 8.999997,18 h 24 l 9,-18 -9,-18 z"
     id="path24"
     inkscape:connector-curvature="0"
     style="fill:#2e3038" />
  <path
     d="m 66.537043,108.42052 h -24 l -9,18 9,18 h 24 l 9,-18 -9,-18 z"
     id="path26"
     inkscape:connector-curvature="0"
     style="fill:#2e3038" />
  <path
     d="m 99.537043,126.42052 h -24 l -9,18 9,18 h 24 l 8.999997,-18 -8.999997,-18 z"
     id="path28"
     inkscape:connector-curvature="0"
     style="fill:#2e3038" />
  <path
     d="m 99.537043,162.42052 h -24 l -9,18 9,18 h 24 l 8.999997,-18 -8.999997,-18 z"
     id="path30"
     inkscape:connector-curvature="0"
     style="fill:#2e3038" />
  <path
     d="m 99.537043,90.420521 h -24 l -9,17.999999 9,18 h 24 l 8.999997,-18 -8.999997,-17.999999 z"
     id="path32"
     inkscape:connector-curvature="0"
     style="fill:#2e3038" />
  <path
     d="m 66.537043,144.42052 h -24 l -9,18 9,18 h 24 l 9,-18 -9,-18 z"
     id="path34"
     inkscape:connector-curvature="0"
     style="fill:#2e3038" />
  <path
     d="m 264.53704,36.420521 h -24 l -9,18 9,18 h 24 l 9,-18 -9,-18 z"
     id="path36"
     inkscape:connector-curvature="0"
     style="fill:#2e3038" />
  <path
     d="m 264.53704,0.4205207 h -24 l -9,18.0000003 9,18 h 24 l 9,-18 -9,-18.0000003 z"
     id="path38"
     inkscape:connector-curvature="0"
     style="fill:#2e3038" />
  <path
     d="m 297.53704,54.420521 h -24 l -9,18 9,18 h 24 l 9,-18 -9,-18 z"
     id="path40"
     inkscape:connector-curvature="0"
     style="fill:#2e3038" />
  <path
     d="m 264.53704,72.420521 h -24 l -9,18 9,17.999999 h 24 l 9,-17.999999 -9,-18 z"
     id="path42"
     inkscape:connector-curvature="0"
     style="fill:#2e3038" />
  <path
     d="m 198.53704,36.420521 h -24 l -9,18 9,18 h 24 l 9,-18 -9,-18 z"
     id="path44"
     inkscape:connector-curvature="0"
     style="fill:#2e3038" />
  <path
     d="m 165.53704,18.420521 h -24 l -9,18 9,18 h 24 l 9,-18 -9,-18 z"
     id="path46"
     inkscape:connector-curvature="0"
     style="fill:#2e3038" />
  <path
     d="m 231.53704,54.420521 h -24 l -9,18 9,18 h 24 l 9,-18 -9,-18 z"
     id="path48"
     inkscape:connector-curvature="0"
     style="fill:#2e3038" />
  <path
     d="m 198.53704,72.420521 h -24 l -9,18 9,17.999999 h 24 l 9,-17.999999 -9,-18 z"
     id="path50"
     inkscape:connector-curvature="0"
     style="fill:#2e3038" />
  <path
     d="m 264.53704,108.42052 h -24 l -9,18 9,18 h 24 l 9,-18 -9,-18 z"
     id="path52"
     inkscape:connector-curvature="0"
     style="fill:#2e3038" />
  <path
     d="m 297.53704,126.42052 h -24 l -9,18 9,18 h 24 l 9,-18 -9,-18 z"
     id="path54"
     inkscape:connector-curvature="0"
     style="fill:#2e3038" />
  <path
     d="m 264.53704,144.42052 h -24 l -9,18 9,18 h 24 l 9,-18 -9,-18 z"
     id="path56"
     inkscape:connector-curvature="0"
     style="fill:#2e3038" />
  <path
     d="m 231.53704,126.42052 h -24 l -9,18 9,18 h 24 l 9,-18 -9,-18 z"
     id="path58"
     inkscape:connector-curvature="0"
     style="fill:#2e3038" />
  <path
     d="m 231.53704,90.420521 h -24 l -9,17.999999 9,18 h 24 l 9,-18 -9,-17.999999 z"
     id="path60"
     inkscape:connector-curvature="0"
     style="fill:#2e3038" />
  <path
     d="m 198.53704,144.42052 h -24 l -9,18 9,18 h 24 l 9,-18 -9,-18 z"
     id="path62"
     inkscape:connector-curvature="0"
     style="fill:#2e3038" />
  <g
     transform="translate(-0.4375,-0.5)"
     style="opacity:0.5"
     id="g4">
    <path
       style="stroke:#44464f"
       inkscape:connector-curvature="0"
       d="m 133,37 h -24 l -9,18 9,18 h 24 l 9,-18 -9,-18 z"
       id="path6-5" />
    <path
       style="stroke:#44464f"
       inkscape:connector-curvature="0"
       d="m 133,1 h -24 l -9,18 9,18 h 24 l 9,-18 -9,-18 z"
       id="path8-9" />
    <path
       style="stroke:#44464f"
       inkscape:connector-curvature="0"
       d="m 166,55 h -24 l -9,18 9,18 h 24 l 9,-18 -9,-18 z"
       id="path10-2" />
    <path
       style="stroke:#44464f"
       inkscape:connector-curvature="0"
       d="m 133,73 h -24 l -9,18 9,18 h 24 l 9,-18 -9,-18 z"
       id="path12-2" />
    <path
       style="stroke:#44464f"
       inkscape:connector-curvature="0"
       d="M 67,37 H 43 l -9,18 9,18 H 67 L 76,55 67,37 z"
       id="path14-8" />
    <path
       style="stroke:#44464f"
       inkscape:connector-curvature="0"
       d="M 34,19 H 10 L 0.999998,37 10,55 H 34 L 43,37 34,19 z"
       id="path16-9" />
    <path
       style="stroke:#44464f"
       inkscape:connector-curvature="0"
       d="M 67,1 H 43 l -9,18 9,18 H 67 L 76,19 67,1 z"
       id="path18-7" />
    <path
       style="stroke:#44464f"
       inkscape:connector-curvature="0"
       d="M 100,55 H 76 l -9,18 9,18 h 24 l 9,-18 -9,-18 z"
       id="path20-3" />
    <path
       style="stroke:#44464f"
       inkscape:connector-curvature="0"
       d="M 100,19 H 76 l -9,18 9,18 h 24 l 9,-18 -9,-18 z"
       id="path22-6" />
    <path
       style="stroke:#44464f"
       inkscape:connector-curvature="0"
       d="M 67,73 H 43 l -9,18 9,18 H 67 L 76,91 67,73 z"
       id="path24-1" />
    <path
       style="stroke:#44464f"
       inkscape:connector-curvature="0"
       d="m 133,109 h -24 l -9,18 9,18 h 24 l 9,-18 -9,-18 z"
       id="path26-2" />
    <path
       style="stroke:#44464f"
       inkscape:connector-curvature="0"
       d="m 166,127 h -24 l -9,18 9,18 h 24 l 9,-18 -9,-18 z"
       id="path28-9" />
    <path
       style="stroke:#44464f"
       inkscape:connector-curvature="0"
       d="m 133,145 h -24 l -9,18 9,18 h 24 l 9,-18 -9,-18 z"
       id="path30-3" />
    <path
       style="stroke:#44464f"
       inkscape:connector-curvature="0"
       d="M 67,109 H 43 l -9,18 9,18 h 24 l 9,-18 -9,-18 z"
       id="path32-1" />
    <path
       style="stroke:#44464f"
       inkscape:connector-curvature="0"
       d="M 34,91 H 10 L 0.999998,109 10,127 h 24 l 9,-18 -9,-18 z"
       id="path34-9" />
    <path
       style="stroke:#44464f"
       inkscape:connector-curvature="0"
       d="M 100,127 H 76 l -9,18 9,18 h 24 l 9,-18 -9,-18 z"
       id="path36-4" />
    <path
       style="stroke:#44464f"
       inkscape:connector-curvature="0"
       d="M 100,163 H 76 l -9,18 9,18 h 24 l 9,-18 -9,-18 z"
       id="path38-7" />
    <path
       style="stroke:#44464f"
       inkscape:connector-curvature="0"
       d="M 100,91 H 76 l -9,18 9,18 h 24 l 9,-18 -9,-18 z"
       id="path40-8" />
    <path
       style="stroke:#44464f"
       inkscape:connector-curvature="0"
       d="M 67,145 H 43 l -9,18 9,18 h 24 l 9,-18 -9,-18 z"
       id="path42-4" />
    <path
       style="stroke:#44464f"
       inkscape:connector-curvature="0"
       d="m 265,37 h -24 l -9,18 9,18 h 24 l 9,-18 -9,-18 z"
       id="path44-5" />
    <path
       style="stroke:#44464f"
       inkscape:connector-curvature="0"
       d="m 265,1 h -24 l -9,18 9,18 h 24 l 9,-18 -9,-18 z"
       id="path46-0" />
    <path
       style="stroke:#44464f"
       inkscape:connector-curvature="0"
       d="m 298,55 h -24 l -9,18 9,18 h 24 l 9,-18 -9,-18 z"
       id="path48-3" />
    <path
       style="stroke:#44464f"
       inkscape:connector-curvature="0"
       d="m 265,73 h -24 l -9,18 9,18 h 24 l 9,-18 -9,-18 z"
       id="path50-6" />
    <path
       style="stroke:#44464f"
       inkscape:connector-curvature="0"
       d="m 199,37 h -24 l -9,18 9,18 h 24 l 9,-18 -9,-18 z"
       id="path52-1" />
    <path
       style="stroke:#44464f"
       inkscape:connector-curvature="0"
       d="m 166,19 h -24 l -9,18 9,18 h 24 l 9,-18 -9,-18 z"
       id="path54-0" />
    <path
       style="stroke:#44464f"
       inkscape:connector-curvature="0"
       d="m 199,1 h -24 l -9,18 9,18 h 24 l 9,-18 -9,-18 z"
       id="path56-6" />
    <path
       style="stroke:#44464f"
       inkscape:connector-curvature="0"
       d="m 232,55 h -24 l -9,18 9,18 h 24 l 9,-18 -9,-18 z"
       id="path58-3" />
    <path
       style="stroke:#44464f"
       inkscape:connector-curvature="0"
       d="m 232,19 h -24 l -9,18 9,18 h 24 l 9,-18 -9,-18 z"
       id="path60-2" />
    <path
       style="stroke:#44464f"
       inkscape:connector-curvature="0"
       d="m 199,73 h -24 l -9,18 9,18 h 24 l 9,-18 -9,-18 z"
       id="path62-0" />
    <path
       style="stroke:#44464f"
       inkscape:connector-curvature="0"
       d="m 265,109 h -24 l -9,18 9,18 h 24 l 9,-18 -9,-18 z"
       id="path64" />
    <path
       style="stroke:#44464f"
       inkscape:connector-curvature="0"
       d="m 298,127 h -24 l -9,18 9,18 h 24 l 9,-18 -9,-18 z"
       id="path66" />
    <path
       style="stroke:#44464f"
       inkscape:connector-curvature="0"
       d="m 265,145 h -24 l -9,18 9,18 h 24 l 9,-18 -9,-18 z"
       id="path68" />
    <path
       style="stroke:#44464f"
       inkscape:connector-curvature="0"
       d="m 199,109 h -24 l -9,18 9,18 h 24 l 9,-18 -9,-18 z"
       id="path70" />
    <path
       style="stroke:#44464f"
       inkscape:connector-curvature="0"
       d="m 166,91 h -24 l -9,18 9,18 h 24 l 9,-18 -9,-18 z"
       id="path72" />
    <path
       style="stroke:#44464f"
       inkscape:connector-curvature="0"
       d="m 232,127 h -24 l -9,18 9,18 h 24 l 9,-18 -9,-18 z"
       id="path74" />
    <path
       style="stroke:#44464f"
       inkscape:connector-curvature="0"
       d="m 232,163 h -24 l -9,18 9,18 h 24 l 9,-18 -9,-18 z"
       id="path76" />
    <path
       style="stroke:#44464f"
       inkscape:connector-curvature="0"
       d="m 232,91 h -24 l -9,18 9,18 h 24 l 9,-18 -9,-18 z"
       id="path78" />
    <path
       style="stroke:#44464f"
       inkscape:connector-curvature="0"
       d="m 199,145 h -24 l -9,18 9,18 h 24 l 9,-18 -9,-18 z"
       id="path80" />
  </g>
</svg>
