<?xml version="1.0" encoding="UTF-8" standalone="no"?>
<svg
   xmlns:dc="http://purl.org/dc/elements/1.1/"
   xmlns:cc="http://creativecommons.org/ns#"
   xmlns:rdf="http://www.w3.org/1999/02/22-rdf-syntax-ns#"
   xmlns:svg="http://www.w3.org/2000/svg"
   xmlns="http://www.w3.org/2000/svg"
   xmlns:sodipodi="http://sodipodi.sourceforge.net/DTD/sodipodi-0.dtd"
   xmlns:inkscape="http://www.inkscape.org/namespaces/inkscape"
   width="274.125"
   height="343"
   viewBox="0 0 274.125 343"
   id="svg2"
   version="1.1"
   inkscape:version="0.48.4 r9939"
   sodipodi:docname="Group.svg"
   style="fill:none">
  <metadata
     id="metadata52">
    <rdf:RDF>
      <cc:Work
         rdf:about="">
        <dc:format>image/svg+xml</dc:format>
        <dc:type
           rdf:resource="http://purl.org/dc/dcmitype/StillImage" />
        <dc:title></dc:title>
      </cc:Work>
    </rdf:RDF>
  </metadata>
  <defs
     id="defs50" />
  <sodipodi:namedview
     pagecolor="#ffffff"
     bordercolor="#666666"
     borderopacity="1"
     objecttolerance="10"
     gridtolerance="10"
     guidetolerance="10"
     inkscape:pageopacity="0"
     inkscape:pageshadow="2"
     inkscape:window-width="1873"
     inkscape:window-height="1176"
     id="namedview48"
     showgrid="false"
     fit-margin-top="0"
     fit-margin-left="0"
     fit-margin-right="0"
     fit-margin-bottom="0"
     inkscape:zoom="1.380117"
     inkscape:cx="-8.1493629"
     inkscape:cy="230.98049"
     inkscape:window-x="47"
     inkscape:window-y="24"
     inkscape:window-maximized="1"
     inkscape:current-layer="svg2" />
  <path
     d="m 231.52516,18.5 h -24 l -9,18 9,18 h 24 l 9,-18 -9,-18 z"
     id="path4"
     inkscape:connector-curvature="0"
     style="fill:#2e3038" />
  <path
     d="m 99.525158,90.5 h -24 l -9,18 9,18 h 24 l 9.000002,-18 -9.000002,-18 z"
     id="path6"
     inkscape:connector-curvature="0"
     style="fill:#2e3038" />
  <path
     d="m 99.525158,54.5 h -24 l -9,18 9,18 h 24 l 9.000002,-18 -9.000002,-18 z"
     id="path8"
     inkscape:connector-curvature="0"
     style="fill:#2e3038" />
  <path
     d="m 264.52516,0.49999988 h -24 l -9,18.00000012 9,18 h 24 l 9,-18 -9,-18.00000012 z"
     id="path10"
     inkscape:connector-curvature="0"
     style="fill:#2e3038" />
  <path
     d="m 231.52516,54.5 h -24 l -9,18 9,18 h 24 l 9,-18 -9,-18 z"
     id="path12"
     inkscape:connector-curvature="0"
     style="fill:#2e3038" />
  <path
     d="m 231.52516,90.5 h -24 l -9,18 9,18 h 24 l 9,-18 -9,-18 z"
     id="path14"
     inkscape:connector-curvature="0"
     style="fill:#2e3038" />
  <path
     d="m 198.52516,72.5 h -24 l -9,18 9,18 h 24 l 9,-18 -9,-18 z"
     id="path16"
     inkscape:connector-curvature="0"
     style="fill:#2e3038" />
  <path
     d="m 264.52516,108.5 h -24 l -9,18 9,18 h 24 l 9,-18 -9,-18 z"
     id="path18"
     inkscape:connector-curvature="0"
     style="fill:#2e3038" />
  <path
     d="m 264.52516,144.5 h -24 l -9,18 9,18 h 24 l 9,-18 -9,-18 z"
     id="path20"
     inkscape:connector-curvature="0"
     style="fill:#2e3038" />
  <path
     d="m 264.52516,72.5 h -24 l -9,18 9,18 h 24 l 9,-18 -9,-18 z"
     id="path22"
     inkscape:connector-curvature="0"
     style="fill:#2e3038" />
  <path
     d="m 231.52516,126.5 h -24 l -9,18 9,18 h 24 l 9,-18 -9,-18 z"
     id="path24"
     inkscape:connector-curvature="0"
     style="fill:#2e3038" />
  <path
     d="M 33.525158,54.5 H 9.5251578 l -9.00000005,18 9.00000005,18 H 33.525158 l 9,-18 -9,-18 z"
     id="path26"
     inkscape:connector-curvature="0"
     style="fill:#2e3038" />
  <path
     d="m 231.52516,198.5 h -24 l -9,18 9,18 h 24 l 9,-18 -9,-18 z"
     id="path28"
     inkscape:connector-curvature="0"
     style="fill:#2e3038" />
  <path
     d="m 198.52516,180.5 h -24 l -9,18 9,18 h 24 l 9,-18 -9,-18 z"
     id="path30"
     inkscape:connector-curvature="0"
     style="fill:#2e3038" />
  <path
     d="m 264.52516,216.5 h -24 l -9,18 9,18 h 24 l 9,-18 -9,-18 z"
     id="path32"
     inkscape:connector-curvature="0"
     style="fill:#2e3038" />
  <path
     d="m 264.52516,180.5 h -24 l -9,18 9,18 h 24 l 9,-18 -9,-18 z"
     id="path34"
     inkscape:connector-curvature="0"
     style="fill:#2e3038" />
  <path
     d="m 198.52516,144.5 h -24 l -9,18 9,18 h 24 l 9,-18 -9,-18 z"
     id="path36"
     inkscape:connector-curvature="0"
     style="fill:#2e3038" />
  <path
     d="m 231.52516,270.5 h -24 l -9,18 9,18 h 24 l 9,-18 -9,-18 z"
     id="path38"
     inkscape:connector-curvature="0"
     style="fill:#2e3038" />
  <path
     d="m 231.52516,306.5 h -24 l -9,18 9,18 h 24 l 9,-18 -9,-18 z"
     id="path40"
     inkscape:connector-curvature="0"
     style="fill:#2e3038" />
  <path
     d="m 165.52516,54.5 h -24 l -9,18 9,18 h 24 l 9,-18 -9,-18 z"
     id="path42"
     inkscape:connector-curvature="0"
     style="fill:#2e3038" />
  <path
     d="m 165.52516,126.5 h -24 l -9,18 9,18 h 24 l 9,-18 -9,-18 z"
     id="path44"
     inkscape:connector-curvature="0"
     style="fill:#ffffff" />
  <path
     d="m 165.52516,162.5 h -24 l -9,18 9,18 h 24 l 9,-18 -9,-18 z"
     id="path46"
     inkscape:connector-curvature="0"
     style="fill:#2e3038" />
  <g
     transform="translate(-0.4375,-0.5)"
     style="opacity:0.5"
     id="g4">
    <path
       style="stroke:#44464f"
       inkscape:connector-curvature="0"
       d="m 232,19 h -24 l -9,18 9,18 h 24 l 9,-18 -9,-18 z"
       id="path6-3" />
    <path
       style="stroke:#44464f"
       inkscape:connector-curvature="0"
       d="M 100,91 H 76 l -9,18 9,18 h 24 l 9,-18 -9,-18 z"
       id="path8-6" />
    <path
       style="stroke:#44464f"
       inkscape:connector-curvature="0"
       d="M 100,55 H 76 l -9,18 9,18 h 24 l 9,-18 -9,-18 z"
       id="path10-7" />
    <path
       style="stroke:#44464f"
       inkscape:connector-curvature="0"
       d="m 265,37 h -24 l -9,18 9,18 h 24 l 9,-18 -9,-18 z"
       id="path12-5" />
    <path
       style="stroke:#44464f"
       inkscape:connector-curvature="0"
       d="m 265,1 h -24 l -9,18 9,18 h 24 l 9,-18 -9,-18 z"
       id="path14-3" />
    <path
       style="stroke:#44464f"
       inkscape:connector-curvature="0"
       d="m 232,55 h -24 l -9,18 9,18 h 24 l 9,-18 -9,-18 z"
       id="path16-5" />
    <path
       style="stroke:#44464f"
       inkscape:connector-curvature="0"
       d="m 232,91 h -24 l -9,18 9,18 h 24 l 9,-18 -9,-18 z"
       id="path18-6" />
    <path
       style="stroke:#44464f"
       inkscape:connector-curvature="0"
       d="m 199,73 h -24 l -9,18 9,18 h 24 l 9,-18 -9,-18 z"
       id="path20-2" />
    <path
       style="stroke:#44464f"
       inkscape:connector-curvature="0"
       d="m 265,109 h -24 l -9,18 9,18 h 24 l 9,-18 -9,-18 z"
       id="path22-9" />
    <path
       style="stroke:#44464f"
       inkscape:connector-curvature="0"
       d="m 265,145 h -24 l -9,18 9,18 h 24 l 9,-18 -9,-18 z"
       id="path24-1" />
    <path
       style="stroke:#44464f"
       inkscape:connector-curvature="0"
       d="m 265,73 h -24 l -9,18 9,18 h 24 l 9,-18 -9,-18 z"
       id="path26-2" />
    <path
       style="stroke:#44464f"
       inkscape:connector-curvature="0"
       d="m 232,127 h -24 l -9,18 9,18 h 24 l 9,-18 -9,-18 z"
       id="path28-7" />
    <path
       style="stroke:#44464f"
       inkscape:connector-curvature="0"
       d="M 34,55 H 10 L 0.999998,73 10,91 H 34 L 43,73 34,55 z"
       id="path30-0" />
    <path
       style="stroke:#44464f"
       inkscape:connector-curvature="0"
       d="m 133,37 h -24 l -9,18 9,18 h 24 l 9,-18 -9,-18 z"
       id="path32-9" />
    <path
       style="stroke:#44464f"
       inkscape:connector-curvature="0"
       d="m 232,199 h -24 l -9,18 9,18 h 24 l 9,-18 -9,-18 z"
       id="path34-3" />
    <path
       style="stroke:#44464f"
       inkscape:connector-curvature="0"
       d="m 199,181 h -24 l -9,18 9,18 h 24 l 9,-18 -9,-18 z"
       id="path36-6" />
    <path
       style="stroke:#44464f"
       inkscape:connector-curvature="0"
       d="m 232,163 h -24 l -9,18 9,18 h 24 l 9,-18 -9,-18 z"
       id="path38-0" />
    <path
       style="stroke:#44464f"
       inkscape:connector-curvature="0"
       d="m 265,217 h -24 l -9,18 9,18 h 24 l 9,-18 -9,-18 z"
       id="path40-6" />
    <path
       style="stroke:#44464f"
       inkscape:connector-curvature="0"
       d="m 265,181 h -24 l -9,18 9,18 h 24 l 9,-18 -9,-18 z"
       id="path42-2" />
    <path
       style="stroke:#44464f"
       inkscape:connector-curvature="0"
       d="m 199,145 h -24 l -9,18 9,18 h 24 l 9,-18 -9,-18 z"
       id="path44-6" />
    <path
       style="stroke:#44464f"
       inkscape:connector-curvature="0"
       d="m 232,271 h -24 l -9,18 9,18 h 24 l 9,-18 -9,-18 z"
       id="path46-1" />
    <path
       style="stroke:#44464f"
       inkscape:connector-curvature="0"
       d="m 232,307 h -24 l -9,18 9,18 h 24 l 9,-18 -9,-18 z"
       id="path48" />
    <path
       style="stroke:#44464f"
       inkscape:connector-curvature="0"
       d="m 166,55 h -24 l -9,18 9,18 h 24 l 9,-18 -9,-18 z"
       id="path50" />
    <path
       style="stroke:#44464f"
       inkscape:connector-curvature="0"
       d="m 166,127 h -24 l -9,18 9,18 h 24 l 9,-18 -9,-18 z"
       id="path52" />
    <path
       style="stroke:#44464f"
       inkscape:connector-curvature="0"
       d="m 166,163 h -24 l -9,18 9,18 h 24 l 9,-18 -9,-18 z"
       id="path54" />
    <path
       style="stroke:#44464f"
       inkscape:connector-curvature="0"
       d="m 166,91 h -24 l -9,18 9,18 h 24 l 9,-18 -9,-18 z"
       id="path56" />
    <path
       style="stroke:#44464f"
       inkscape:connector-curvature="0"
       d="m 133,109 h -24 l -9,18 9,18 h 24 l 9,-18 -9,-18 z"
       id="path58" />
    <path
       style="stroke:#44464f"
       inkscape:connector-curvature="0"
       d="m 199,217 h -24 l -9,18 9,18 h 24 l 9,-18 -9,-18 z"
       id="path60" />
  </g>
</svg>
