<?xml version="1.0" encoding="UTF-8" standalone="no"?>
<svg
   xmlns:dc="http://purl.org/dc/elements/1.1/"
   xmlns:cc="http://creativecommons.org/ns#"
   xmlns:rdf="http://www.w3.org/1999/02/22-rdf-syntax-ns#"
   xmlns:svg="http://www.w3.org/2000/svg"
   xmlns="http://www.w3.org/2000/svg"
   xmlns:sodipodi="http://sodipodi.sourceforge.net/DTD/sodipodi-0.dtd"
   xmlns:inkscape="http://www.inkscape.org/namespaces/inkscape"
   width="274.125"
   height="343"
   viewBox="0 0 274.125 343"
   id="svg2"
   version="1.1"
   inkscape:version="0.48.4 r9939"
   sodipodi:docname="Group-1.svg"
   style="fill:none">
  <metadata
     id="metadata66">
    <rdf:RDF>
      <cc:Work
         rdf:about="">
        <dc:format>image/svg+xml</dc:format>
        <dc:type
           rdf:resource="http://purl.org/dc/dcmitype/StillImage" />
        <dc:title></dc:title>
      </cc:Work>
    </rdf:RDF>
  </metadata>
  <defs
     id="defs64" />
  <sodipodi:namedview
     pagecolor="#ffffff"
     bordercolor="#666666"
     borderopacity="1"
     objecttolerance="10"
     gridtolerance="10"
     guidetolerance="10"
     inkscape:pageopacity="0"
     inkscape:pageshadow="2"
     inkscape:window-width="1873"
     inkscape:window-height="1176"
     id="namedview62"
     showgrid="false"
     fit-margin-top="0"
     fit-margin-left="0"
     fit-margin-right="0"
     fit-margin-bottom="0"
     inkscape:zoom="1.372093"
     inkscape:cx="-30.237856"
     inkscape:cy="175.99518"
     inkscape:window-x="47"
     inkscape:window-y="24"
     inkscape:window-maximized="1"
     inkscape:current-layer="svg2" />
  <g
     transform="translate(13.480936,0.54555041)"
     id="g3033">
    <path
       style="fill:#2e3038"
       inkscape:connector-curvature="0"
       id="path4"
       d="m 29,324 h 24 l 9,-18 -9,-18 H 29 l -9,18 9,18 z" />
    <path
       style="fill:#2e3038"
       inkscape:connector-curvature="0"
       id="path6-3"
       d="m 161,252 h 24 l 9,-18 -9,-18 h -24 l -9,18 9,18 z" />
    <path
       style="fill:#2e3038"
       inkscape:connector-curvature="0"
       id="path8-6"
       d="m 161,288 h 24 l 9,-18 -9,-18 h -24 l -9,18 9,18 z" />
    <path
       style="fill:#2e3038"
       inkscape:connector-curvature="0"
       id="path10-7"
       d="m -4,306 h 24 l 9,-18 -9,-18 H -4 l -9,18 9,18 z" />
    <path
       style="fill:#2e3038"
       inkscape:connector-curvature="0"
       id="path12-5"
       d="m -4,342 h 24 l 9,-18 -9,-18 H -4 l -9,18 9,18 z" />
    <path
       style="fill:#2e3038"
       inkscape:connector-curvature="0"
       id="path14-3"
       d="m 29,288 h 24 l 9,-18 -9,-18 H 29 l -9,18 9,18 z" />
    <path
       style="fill:#2e3038"
       inkscape:connector-curvature="0"
       id="path16-5"
       d="m 29,252 h 24 l 9,-18 -9,-18 H 29 l -9,18 9,18 z" />
    <path
       style="fill:#2e3038"
       inkscape:connector-curvature="0"
       id="path18-6"
       d="m 62,270 h 24 l 9,-18 -9,-18 H 62 l -9,18 9,18 z" />
    <path
       style="fill:#2e3038"
       inkscape:connector-curvature="0"
       id="path20-2"
       d="m -4,198 h 24 l 9,-18 -9,-18 H -4 l -9,18 9,18 z" />
    <path
       style="fill:#2e3038"
       inkscape:connector-curvature="0"
       id="path22-9"
       d="m -4,270 h 24 l 9,-18 -9,-18 H -4 l -9,18 9,18 z" />
    <path
       style="fill:#2e3038"
       inkscape:connector-curvature="0"
       id="path24-1"
       d="m 29,216 h 24 l 9,-18 -9,-18 H 29 l -9,18 9,18 z" />
    <path
       style="fill:#2e3038"
       inkscape:connector-curvature="0"
       id="path26-2"
       d="m 128,306 h 24 l 9,-18 -9,-18 h -24 l -9,18 9,18 z" />
    <path
       style="fill:#2e3038"
       inkscape:connector-curvature="0"
       id="path28-7"
       d="m 29,144 h 24 l 9,-18 -9,-18 H 29 l -9,18 9,18 z" />
    <path
       style="fill:#2e3038"
       inkscape:connector-curvature="0"
       id="path30-0"
       d="m 62,162 h 24 l 9,-18 -9,-18 H 62 l -9,18 9,18 z" />
    <path
       style="fill:#fdb811"
       inkscape:connector-curvature="0"
       id="path32-9"
       d="m 29,180 h 24 l 9,-18 -9,-18 H 29 l -9,18 9,18 z" />
    <path
       style="fill:#2e3038"
       inkscape:connector-curvature="0"
       id="path34-3"
       d="M -4,126 H 20 L 29,108 20,90 H -4 l -9,18 9,18 z" />
    <path
       style="fill:#2e3038"
       inkscape:connector-curvature="0"
       id="path36-6"
       d="m -4,162 h 24 l 9,-18 -9,-18 H -4 l -9,18 9,18 z" />
    <path
       style="fill:#2e3038"
       inkscape:connector-curvature="0"
       id="path38-0"
       d="m 62,198 h 24 l 9,-18 -9,-18 H 62 l -9,18 9,18 z" />
    <path
       style="fill:#2e3038"
       inkscape:connector-curvature="0"
       id="path40-6"
       d="M 29,72 H 53 L 62,54 53,36 H 29 l -9,18 9,18 z" />
    <path
       style="fill:#2e3038"
       inkscape:connector-curvature="0"
       id="path42-2"
       d="M 62,90 H 86 L 95,72 86,54 H 62 l -9,18 9,18 z" />
    <path
       style="fill:#2e3038"
       inkscape:connector-curvature="0"
       id="path44-6"
       d="M 29,36 H 53 L 62,18 53,0 H 29 l -9,18 9,18 z" />
    <path
       style="fill:#2e3038"
       inkscape:connector-curvature="0"
       id="path46-1"
       d="m 95,288 h 24 l 9,-18 -9,-18 H 95 l -9,18 9,18 z" />
    <path
       style="fill:#2e3038"
       inkscape:connector-curvature="0"
       id="path48-8"
       d="m 95,216 h 24 l 9,-18 -9,-18 H 95 l -9,18 9,18 z" />
    <path
       style="fill:#2e3038"
       inkscape:connector-curvature="0"
       id="path50-7"
       d="m 95,180 h 24 l 9,-18 -9,-18 H 95 l -9,18 9,18 z" />
  </g>
  <g
     id="g4"
     transform="translate(13.5625,-0.5)"
     style="opacity:0.5">
    <path
       d="m 29,325 h 24 l 9,-18 -9,-18 H 29 l -9,18 9,18 z"
       id="path6"
       inkscape:connector-curvature="0"
       style="stroke:#44464f" />
    <path
       d="m 161,253 h 24 l 9,-18 -9,-18 h -24 l -9,18 9,18 z"
       id="path8"
       inkscape:connector-curvature="0"
       style="stroke:#44464f" />
    <path
       d="m 161,289 h 24 l 9,-18 -9,-18 h -24 l -9,18 9,18 z"
       id="path10"
       inkscape:connector-curvature="0"
       style="stroke:#44464f" />
    <path
       d="m -4,307 h 24 l 9,-18 -9,-18 H -4 l -9,18 9,18 z"
       id="path12"
       inkscape:connector-curvature="0"
       style="stroke:#44464f" />
    <path
       d="m -4,343 h 24 l 9,-18 -9,-18 H -4 l -9,18 9,18 z"
       id="path14"
       inkscape:connector-curvature="0"
       style="stroke:#44464f" />
    <path
       d="m 29,289 h 24 l 9,-18 -9,-18 H 29 l -9,18 9,18 z"
       id="path16"
       inkscape:connector-curvature="0"
       style="stroke:#44464f" />
    <path
       d="m 29,253 h 24 l 9,-18 -9,-18 H 29 l -9,18 9,18 z"
       id="path18"
       inkscape:connector-curvature="0"
       style="stroke:#44464f" />
    <path
       d="m 62,271 h 24 l 9,-18 -9,-18 H 62 l -9,18 9,18 z"
       id="path20"
       inkscape:connector-curvature="0"
       style="stroke:#44464f" />
    <path
       d="m -4,199 h 24 l 9,-18 -9,-18 H -4 l -9,18 9,18 z"
       id="path22"
       inkscape:connector-curvature="0"
       style="stroke:#44464f" />
    <path
       d="m -4,271 h 24 l 9,-18 -9,-18 H -4 l -9,18 9,18 z"
       id="path24"
       inkscape:connector-curvature="0"
       style="stroke:#44464f" />
    <path
       d="m 29,217 h 24 l 9,-18 -9,-18 H 29 l -9,18 9,18 z"
       id="path26"
       inkscape:connector-curvature="0"
       style="stroke:#44464f" />
    <path
       d="m 227,289 h 24 l 9,-18 -9,-18 h -24 l -9,18 9,18 z"
       id="path28"
       inkscape:connector-curvature="0"
       style="stroke:#44464f" />
    <path
       d="m 128,307 h 24 l 9,-18 -9,-18 h -24 l -9,18 9,18 z"
       id="path30"
       inkscape:connector-curvature="0"
       style="stroke:#44464f" />
    <path
       d="m 29,145 h 24 l 9,-18 -9,-18 H 29 l -9,18 9,18 z"
       id="path32"
       inkscape:connector-curvature="0"
       style="stroke:#44464f" />
    <path
       d="m 62,163 h 24 l 9,-18 -9,-18 H 62 l -9,18 9,18 z"
       id="path34"
       inkscape:connector-curvature="0"
       style="stroke:#44464f" />
    <path
       d="m 29,181 h 24 l 9,-18 -9,-18 H 29 l -9,18 9,18 z"
       id="path36"
       inkscape:connector-curvature="0"
       style="stroke:#44464f" />
    <path
       d="M -4,127 H 20 L 29,109 20,91 H -4 l -9,18 9,18 z"
       id="path38"
       inkscape:connector-curvature="0"
       style="stroke:#44464f" />
    <path
       d="m -4,163 h 24 l 9,-18 -9,-18 H -4 l -9,18 9,18 z"
       id="path40"
       inkscape:connector-curvature="0"
       style="stroke:#44464f" />
    <path
       d="m 62,199 h 24 l 9,-18 -9,-18 H 62 l -9,18 9,18 z"
       id="path42"
       inkscape:connector-curvature="0"
       style="stroke:#44464f" />
    <path
       d="M 29,73 H 53 L 62,55 53,37 H 29 l -9,18 9,18 z"
       id="path44"
       inkscape:connector-curvature="0"
       style="stroke:#44464f" />
    <path
       d="M 62,91 H 86 L 95,73 86,55 H 62 l -9,18 9,18 z"
       id="path46"
       inkscape:connector-curvature="0"
       style="stroke:#44464f" />
    <path
       d="M 29,37 H 53 L 62,19 53,0.999999 H 29 L 20,19 29,37 z"
       id="path48"
       inkscape:connector-curvature="0"
       style="stroke:#44464f" />
    <path
       d="m 95,289 h 24 l 9,-18 -9,-18 H 95 l -9,18 9,18 z"
       id="path50"
       inkscape:connector-curvature="0"
       style="stroke:#44464f" />
    <path
       d="m 95,217 h 24 l 9,-18 -9,-18 H 95 l -9,18 9,18 z"
       id="path52"
       inkscape:connector-curvature="0"
       style="stroke:#44464f" />
    <path
       d="m 95,181 h 24 l 9,-18 -9,-18 H 95 l -9,18 9,18 z"
       id="path54"
       inkscape:connector-curvature="0"
       style="stroke:#44464f" />
    <path
       d="m 62,235 h 24 l 9,-18 -9,-18 H 62 l -9,18 9,18 z"
       id="path56"
       inkscape:connector-curvature="0"
       style="stroke:#44464f" />
    <path
       d="m 128,271 h 24 l 9,-18 -9,-18 h -24 l -9,18 9,18 z"
       id="path58"
       inkscape:connector-curvature="0"
       style="stroke:#44464f" />
    <path
       d="m 95,325 h 24 l 9,-18 -9,-18 H 95 l -9,18 9,18 z"
       id="path60"
       inkscape:connector-curvature="0"
       style="stroke:#44464f" />
  </g>
</svg>
