<svg width="708" height="542" viewBox="0 0 708 542" fill="none" xmlns="http://www.w3.org/2000/svg">
<path d="M372 91H348L339 73L348 55H372L381 73L372 91Z" fill="#2E3038"/>
<path d="M372 55H348L339 37L348 19H372L381 37L372 55Z" fill="#2E3038"/>
<path d="M306 91H282L273 73L282 55H306L315 73L306 91Z" fill="#2E3038"/>
<path d="M339 73H315L306 55L315 37H339L348 55L339 73Z" fill="#2E3038"/>
<path d="M504 91H480L471 73L480 55H504L513 73L504 91Z" fill="#2E3038"/>
<path d="M570 55H546L537 37L546 19H570L579 37L570 55Z" fill="#2E3038"/>
<path d="M504 127H480L471 109L480 91H504L513 109L504 127Z" fill="#2E3038"/>
<path d="M282 271H306L315 253L306 235H282L273 253L282 271Z" fill="#2E3038"/>
<path d="M282 307H306L315 289L306 271H282L273 289L282 307Z" fill="#2E3038"/>
<path d="M249 253H273L282 235L273 217H249L240 235L249 253Z" fill="#2E3038"/>
<path d="M282 235H306L315 217L306 199H282L273 217L282 235Z" fill="#2E3038"/>
<path d="M348 271H372L381 253L372 235H348L339 253L348 271Z" fill="#2E3038"/>
<path d="M381 289H405L414 271L405 253H381L372 271L381 289Z" fill="#2E3038"/>
<path d="M348 307H372L381 289L372 271H348L339 289L348 307Z" fill="#2E3038"/>
<path d="M315 325H339L348 307L339 289H315L306 307L315 325Z" fill="#2E3038"/>
<path d="M315 289H339L348 271L339 253H315L306 271L315 289Z" fill="#2E3038"/>
<path d="M447 397H471L480 379L471 361H447L438 379L447 397Z" fill="#2E3038"/>
<path d="M282 199H306L315 181L306 163H282L273 181L282 199Z" fill="#2E3038"/>
<path d="M447 433H471L480 415L471 397H447L438 415L447 433Z" fill="#2E3038"/>
<path d="M282 163H306L315 145L306 127H282L273 145L282 163Z" fill="#2E3038"/>
<path d="M348 199H372L381 181L372 163H348L339 181L348 199Z" fill="#2E3038"/>
<path d="M381 217H405L414 199L405 181H381L372 199L381 217Z" fill="#2E3038"/>
<path d="M315 181H339L348 163L339 145H315L306 163L315 181Z" fill="#2E3038"/>
<path d="M315 145H339L348 127L339 109H315L306 127L315 145Z" fill="#2E3038"/>
<path d="M381 181H405L414 163L405 145H381L372 163L381 181Z" fill="#2E3038"/>
<path d="M348 163H372L381 145L372 127H348L339 145L348 163Z" fill="#2E3038"/>
<path d="M183 325H207L216 307L207 289H183L174 307L183 325Z" fill="#2E3038"/>
<path d="M183 361H207L216 343L207 325H183L174 343L183 361Z" fill="#2E3038"/>
<path d="M150 307H174L183 289L174 271H150L141 289L150 307Z" fill="#2E3038"/>
<path d="M183 289H207L216 271L207 253H183L174 271L183 289Z" fill="#2E3038"/>
<path d="M216 271H240L249 253L240 235H216L207 253L216 271Z" fill="#2E3038"/>
<path d="M249 289H273L282 271L273 253H249L240 271L249 289Z" fill="#2E3038"/>
<path d="M216 307H240L249 289L240 271H216L207 289L216 307Z" fill="#2E3038"/>
<path d="M414 343H438L447 325L438 307H414L405 325L414 343Z" fill="#2E3038"/>
<path d="M414 379H438L447 361L438 343H414L405 361L414 379Z" fill="#2E3038"/>
<path d="M216 235H240L249 217L240 199H216L207 217L216 235Z" fill="#2E3038"/>
<path d="M183 253H207L216 235L207 217H183L174 235L183 253Z" fill="#2E3038"/>
<path d="M249 217H273L282 199L273 181H249L240 199L249 217Z" fill="#2E3038"/>
<path d="M315 361H339L348 343L339 325H315L306 343L315 361Z" fill="#2E3038"/>
<path d="M414 415H438L447 397L438 379H414L405 397L414 415Z" fill="#2E3038"/>
<path d="M150 379H174L183 361L174 343H150L141 361L150 379Z" fill="#2E3038"/>
<path d="M150 343H174L183 325L174 307H150L141 325L150 343Z" fill="#2E3038"/>
<path d="M117 325H141L150 307L141 289H117L108 307L117 325Z" fill="#2E3038"/>
<path d="M537 289H513L504 271L513 253H537L546 271L537 289Z" fill="#2E3038"/>
<path d="M537 325H513L504 307L513 289H537L546 307L537 325Z" fill="#2E3038"/>
<path d="M570 271H546L537 253L546 235H570L579 253L570 271Z" fill="#2E3038"/>
<path d="M537 253H513L504 235L513 217H537L546 235L537 253Z" fill="#2E3038"/>
<path d="M471 289H447L438 271L447 253H471L480 271L471 289Z" fill="#2E3038"/>
<path d="M438 307H414L405 289L414 271H438L447 289L438 307Z" fill="#2E3038"/>
<path d="M471 325H447L438 307L447 289H471L480 307L471 325Z" fill="#2E3038"/>
<path d="M504 343H480L471 325L480 307H504L513 325L504 343Z" fill="#2E3038"/>
<path d="M504 307H480L471 289L480 271H504L513 289L504 307Z" fill="#2E3038"/>
<path d="M570 163H546L537 145L546 127H570L579 145L570 163Z" fill="#2E3038"/>
<path d="M537 217H513L504 199L513 181H537L546 199L537 217Z" fill="#2E3038"/>
<path d="M570 199H546L537 181L546 163H570L579 181L570 199Z" fill="#2E3038"/>
<path d="M537 181H513L504 163L513 145H537L546 163L537 181Z" fill="#2E3038"/>
<path d="M471 217H447L438 199L447 181H471L480 199L471 217Z" fill="#2E3038"/>
<path d="M438 235H414L405 217L414 199H438L447 217L438 235Z" fill="#2E3038"/>
<path d="M504 199H480L471 181L480 163H504L513 181L504 199Z" fill="#2E3038"/>
<path d="M504 163H480L471 145L480 127H504L513 145L504 163Z" fill="#2E3038"/>
<path d="M438 199H414L405 181L414 163H438L447 181L438 199Z" fill="#2E3038"/>
<path d="M471 181H447L438 163L447 145H471L480 163L471 181Z" fill="#2E3038"/>
<path d="M669 289H645L636 271L645 253H669L678 271L669 289Z" fill="#2E3038"/>
<path d="M669 325H645L636 307L645 289H669L678 307L669 325Z" fill="#2E3038"/>
<path d="M702 271H678L669 253L678 235H702L711 253L702 271Z" fill="#2E3038"/>
<path d="M669 253H645L636 235L645 217H669L678 235L669 253Z" fill="#2E3038"/>
<path d="M603 289H579L570 271L579 253H603L612 271L603 289Z" fill="#2E3038"/>
<path d="M570 307H546L537 289L546 271H570L579 289L570 307Z" fill="#2E3038"/>
<path d="M603 325H579L570 307L579 289H603L612 307L603 325Z" fill="#2E3038"/>
<path d="M636 271H612L603 253L612 235H636L645 253L636 271Z" fill="#2E3038"/>
<path d="M636 307H612L603 289L612 271H636L645 289L636 307Z" fill="#2E3038"/>
<path d="M603 253H579L570 235L579 217H603L612 235L603 253Z" fill="#2E3038"/>
<path d="M669 217H645L636 199L645 181H669L678 199L669 217Z" fill="#2E3038"/>
<path d="M702 199H678L669 181L678 163H702L711 181L702 199Z" fill="#2E3038"/>
<path d="M669 181H645L636 163L645 145H669L678 163L669 181Z" fill="#F36E1E"/>
<path d="M603 217H579L570 199L579 181H603L612 199L603 217Z" fill="#2E3038"/>
<path d="M570 235H546L537 217L546 199H570L579 217L570 235Z" fill="#2E3038"/>
<path d="M636 199H612L603 181L612 163H636L645 181L636 199Z" fill="#2E3038"/>
<path d="M702 163H678L669 145L678 127H702L711 145L702 163Z" fill="#2E3038"/>
<path d="M636 235H612L603 217L612 199H636L645 217L636 235Z" fill="#2E3038"/>
<path d="M603 181H579L570 163L579 145H603L612 163L603 181Z" fill="#2E3038"/>
<path d="M735 325H711L702 307L711 289H735L744 307L735 325Z" fill="#2E3038"/>
<path d="M702 343H678L669 325L678 307H702L711 325L702 343Z" fill="#2E3038"/>
<path d="M702 307H678L669 289L678 271H702L711 289L702 307Z" fill="#2E3038"/>
<path d="M735 289H711L702 271L711 253H735L744 271L735 289Z" fill="#2E3038"/>
<path d="M678 487H702L711 469L702 451H678L669 469L678 487Z" fill="#2E3038"/>
<path d="M678 523H702L711 505L702 487H678L669 505L678 523Z" fill="#2E3038"/>
<path d="M645 469H669L678 451L669 433H645L636 451L645 469Z" fill="#2E3038"/>
<path d="M678 451H702L711 433L702 415H678L669 433L678 451Z" fill="#2E3038"/>
<path d="M711 541H735L744 523L735 505H711L702 523L711 541Z" fill="#2E3038"/>
<path d="M711 505H735L744 487L735 469H711L702 487L711 505Z" fill="#2E3038"/>
<path d="M645 361H669L678 343L669 325H645L636 343L645 361Z" fill="#2E3038"/>
<path d="M678 415H702L711 397L702 379H678L669 397L678 415Z" fill="#2E3038"/>
<path d="M645 397H669L678 379L669 361H645L636 379L645 397Z" fill="#2E3038"/>
<path d="M678 379H702L711 361L702 343H678L669 361L678 379Z" fill="#2E3038"/>
<path d="M711 397H735L744 379L735 361H711L702 379L711 397Z" fill="#2E3038"/>
<path d="M711 361H735L744 343L735 325H711L702 343L711 361Z" fill="#2E3038"/>
<path d="M612 487H636L645 469L636 451H612L603 469L612 487Z" fill="#2E3038"/>
<path d="M645 505H669L678 487L669 469H645L636 487L645 505Z" fill="#2E3038"/>
<path d="M612 523H636L645 505L636 487H612L603 505L612 523Z" fill="#2E3038"/>
<path d="M579 469H603L612 451L603 433H579L570 451L579 469Z" fill="#2E3038"/>
<path d="M579 505H603L612 487L603 469H579L570 487L579 505Z" fill="#2E3038"/>
<path d="M612 451H636L645 433L636 415H612L603 433L612 451Z" fill="#2E3038"/>
<path d="M546 415H570L579 397L570 379H546L537 397L546 415Z" fill="#2E3038"/>
<path d="M546 379H570L579 361L570 343H546L537 361L546 379Z" fill="#2E3038"/>
<path d="M612 415H636L645 397L636 379H612L603 397L612 415Z" fill="#2E3038"/>
<path d="M645 433H669L678 415L669 397H645L636 415L645 433Z" fill="#2E3038"/>
<path d="M579 397H603L612 379L603 361H579L570 379L579 397Z" fill="#2E3038"/>
<path d="M513 361H537L546 343L537 325H513L504 343L513 361Z" fill="#2E3038"/>
<path d="M579 433H603L612 415L603 397H579L570 415L579 433Z" fill="#2E3038"/>
<path d="M612 379H636L645 361L636 343H612L603 361L612 379Z" fill="#2E3038"/>
<g opacity="0.5">
<path d="M405 181H381L372 163L381 145H405L414 163L405 181Z" stroke="#44464F"/>
<path d="M405 109H381L372 91L381 73H405L414 91L405 109Z" stroke="#44464F"/>
<path d="M372 127H348L339 109L348 91H372L381 109L372 127Z" stroke="#44464F"/>
<path d="M405 145H381L372 127L381 109H405L414 127L405 145Z" stroke="#44464F"/>
<path d="M438 163H414L405 145L414 127H438L447 145L438 163Z" stroke="#44464F"/>
<path d="M405 73H381L372 55L381 37H405L414 55L405 73Z" stroke="#44464F"/>
<path d="M339 109H315L306 91L315 73H339L348 91L339 109Z" stroke="#44464F"/>
<path d="M306 127H282L273 109L282 91H306L315 109L306 127Z" stroke="#44464F"/>
<path d="M372 91H348L339 73L348 55H372L381 73L372 91Z" stroke="#44464F"/>
<path d="M372 55H348L339 37L348 19H372L381 37L372 55Z" stroke="#44464F"/>
<path d="M306 91H282L273 73L282 55H306L315 73L306 91Z" stroke="#44464F"/>
<path d="M339 73H315L306 55L315 37H339L348 55L339 73Z" stroke="#44464F"/>
<path d="M504 91H480L471 73L480 55H504L513 73L504 91Z" stroke="#44464F"/>
<path d="M570 55H546L537 37L546 19H570L579 37L570 55Z" stroke="#44464F"/>
<path d="M504 127H480L471 109L480 91H504L513 109L504 127Z" stroke="#44464F"/>
<path d="M282 271H306L315 253L306 235H282L273 253L282 271Z" stroke="#44464F"/>
<path d="M282 307H306L315 289L306 271H282L273 289L282 307Z" stroke="#44464F"/>
<path d="M249 253H273L282 235L273 217H249L240 235L249 253Z" stroke="#44464F"/>
<path d="M282 235H306L315 217L306 199H282L273 217L282 235Z" stroke="#44464F"/>
<path d="M348 271H372L381 253L372 235H348L339 253L348 271Z" stroke="#44464F"/>
<path d="M381 289H405L414 271L405 253H381L372 271L381 289Z" stroke="#44464F"/>
<path d="M348 307H372L381 289L372 271H348L339 289L348 307Z" stroke="#44464F"/>
<path d="M315 325H339L348 307L339 289H315L306 307L315 325Z" stroke="#44464F"/>
<path d="M315 289H339L348 271L339 253H315L306 271L315 289Z" stroke="#44464F"/>
<path d="M447 397H471L480 379L471 361H447L438 379L447 397Z" stroke="#44464F"/>
<path d="M282 199H306L315 181L306 163H282L273 181L282 199Z" stroke="#44464F"/>
<path d="M447 433H471L480 415L471 397H447L438 415L447 433Z" stroke="#44464F"/>
<path d="M282 163H306L315 145L306 127H282L273 145L282 163Z" stroke="#44464F"/>
<path d="M348 199H372L381 181L372 163H348L339 181L348 199Z" stroke="#44464F"/>
<path d="M381 217H405L414 199L405 181H381L372 199L381 217Z" stroke="#44464F"/>
<path d="M315 181H339L348 163L339 145H315L306 163L315 181Z" stroke="#44464F"/>
<path d="M315 145H339L348 127L339 109H315L306 127L315 145Z" stroke="#44464F"/>
<path d="M381 181H405L414 163L405 145H381L372 163L381 181Z" stroke="#44464F"/>
<path d="M348 163H372L381 145L372 127H348L339 145L348 163Z" stroke="#44464F"/>
<path d="M183 325H207L216 307L207 289H183L174 307L183 325Z" stroke="#44464F"/>
<path d="M183 361H207L216 343L207 325H183L174 343L183 361Z" stroke="#44464F"/>
<path d="M150 307H174L183 289L174 271H150L141 289L150 307Z" stroke="#44464F"/>
<path d="M183 289H207L216 271L207 253H183L174 271L183 289Z" stroke="#44464F"/>
<path d="M216 271H240L249 253L240 235H216L207 253L216 271Z" stroke="#44464F"/>
<path d="M249 289H273L282 271L273 253H249L240 271L249 289Z" stroke="#44464F"/>
<path d="M216 307H240L249 289L240 271H216L207 289L216 307Z" stroke="#44464F"/>
<path d="M414 343H438L447 325L438 307H414L405 325L414 343Z" stroke="#44464F"/>
<path d="M216 235H240L249 217L240 199H216L207 217L216 235Z" stroke="#44464F"/>
<path d="M183 253H207L216 235L207 217H183L174 235L183 253Z" stroke="#44464F"/>
<path d="M414 451H438L447 433L438 415H414L405 433L414 451Z" stroke="#44464F"/>
<path d="M249 217H273L282 199L273 181H249L240 199L249 217Z" stroke="#44464F"/>
<path d="M315 361H339L348 343L339 325H315L306 343L315 361Z" stroke="#44464F"/>
<path d="M414 415H438L447 397L438 379H414L405 397L414 415Z" stroke="#44464F"/>
<path d="M117 361H141L150 343L141 325H117L108 343L117 361Z" stroke="#44464F"/>
<path d="M150 379H174L183 361L174 343H150L141 361L150 379Z" stroke="#44464F"/>
<path d="M84 343H108L117 325L108 307H84L75 325L84 343Z" stroke="#44464F"/>
<path d="M150 343H174L183 325L174 307H150L141 325L150 343Z" stroke="#44464F"/>
<path d="M117 325H141L150 307L141 289H117L108 307L117 325Z" stroke="#44464F"/>
<path d="M537 289H513L504 271L513 253H537L546 271L537 289Z" stroke="#44464F"/>
<path d="M537 325H513L504 307L513 289H537L546 307L537 325Z" stroke="#44464F"/>
<path d="M570 271H546L537 253L546 235H570L579 253L570 271Z" stroke="#44464F"/>
<path d="M537 253H513L504 235L513 217H537L546 235L537 253Z" stroke="#44464F"/>
<path d="M471 289H447L438 271L447 253H471L480 271L471 289Z" stroke="#44464F"/>
<path d="M438 307H414L405 289L414 271H438L447 289L438 307Z" stroke="#44464F"/>
<path d="M471 325H447L438 307L447 289H471L480 307L471 325Z" stroke="#44464F"/>
<path d="M504 343H480L471 325L480 307H504L513 325L504 343Z" stroke="#44464F"/>
<path d="M504 307H480L471 289L480 271H504L513 289L504 307Z" stroke="#44464F"/>
<path d="M570 163H546L537 145L546 127H570L579 145L570 163Z" stroke="#44464F"/>
<path d="M537 217H513L504 199L513 181H537L546 199L537 217Z" stroke="#44464F"/>
<path d="M570 199H546L537 181L546 163H570L579 181L570 199Z" stroke="#44464F"/>
<path d="M537 181H513L504 163L513 145H537L546 163L537 181Z" stroke="#44464F"/>
<path d="M471 217H447L438 199L447 181H471L480 199L471 217Z" stroke="#44464F"/>
<path d="M438 235H414L405 217L414 199H438L447 217L438 235Z" stroke="#44464F"/>
<path d="M504 199H480L471 181L480 163H504L513 181L504 199Z" stroke="#44464F"/>
<path d="M504 163H480L471 145L480 127H504L513 145L504 163Z" stroke="#44464F"/>
<path d="M438 199H414L405 181L414 163H438L447 181L438 199Z" stroke="#44464F"/>
<path d="M471 181H447L438 163L447 145H471L480 163L471 181Z" stroke="#44464F"/>
<path d="M669 289H645L636 271L645 253H669L678 271L669 289Z" stroke="#44464F"/>
<path d="M669 325H645L636 307L645 289H669L678 307L669 325Z" stroke="#44464F"/>
<path d="M702 271H678L669 253L678 235H702L711 253L702 271Z" stroke="#44464F"/>
<path d="M669 253H645L636 235L645 217H669L678 235L669 253Z" stroke="#44464F"/>
<path d="M603 289H579L570 271L579 253H603L612 271L603 289Z" stroke="#44464F"/>
<path d="M570 307H546L537 289L546 271H570L579 289L570 307Z" stroke="#44464F"/>
<path d="M603 325H579L570 307L579 289H603L612 307L603 325Z" stroke="#44464F"/>
<path d="M636 271H612L603 253L612 235H636L645 253L636 271Z" stroke="#44464F"/>
<path d="M636 307H612L603 289L612 271H636L645 289L636 307Z" stroke="#44464F"/>
<path d="M603 253H579L570 235L579 217H603L612 235L603 253Z" stroke="#44464F"/>
<path d="M669 217H645L636 199L645 181H669L678 199L669 217Z" stroke="#44464F"/>
<path d="M702 199H678L669 181L678 163H702L711 181L702 199Z" stroke="#44464F"/>
<path d="M669 181H645L636 163L645 145H669L678 163L669 181Z" stroke="#44464F"/>
<path d="M603 217H579L570 199L579 181H603L612 199L603 217Z" stroke="#44464F"/>
<path d="M570 235H546L537 217L546 199H570L579 217L570 235Z" stroke="#44464F"/>
<path d="M636 199H612L603 181L612 163H636L645 181L636 199Z" stroke="#44464F"/>
<path d="M702 163H678L669 145L678 127H702L711 145L702 163Z" stroke="#44464F"/>
<path d="M636 235H612L603 217L612 199H636L645 217L636 235Z" stroke="#44464F"/>
<path d="M603 181H579L570 163L579 145H603L612 163L603 181Z" stroke="#44464F"/>
<path d="M735 325H711L702 307L711 289H735L744 307L735 325Z" stroke="#44464F"/>
<path d="M702 343H678L669 325L678 307H702L711 325L702 343Z" stroke="#44464F"/>
<path d="M702 307H678L669 289L678 271H702L711 289L702 307Z" stroke="#44464F"/>
<path d="M735 289H711L702 271L711 253H735L744 271L735 289Z" stroke="#44464F"/>
<path d="M678 487H702L711 469L702 451H678L669 469L678 487Z" stroke="#44464F"/>
<path d="M678 523H702L711 505L702 487H678L669 505L678 523Z" stroke="#44464F"/>
<path d="M645 469H669L678 451L669 433H645L636 451L645 469Z" stroke="#44464F"/>
<path d="M678 451H702L711 433L702 415H678L669 433L678 451Z" stroke="#44464F"/>
<path d="M711 541H735L744 523L735 505H711L702 523L711 541Z" stroke="#44464F"/>
<path d="M711 505H735L744 487L735 469H711L702 487L711 505Z" stroke="#44464F"/>
<path d="M645 361H669L678 343L669 325H645L636 343L645 361Z" stroke="#44464F"/>
<path d="M678 415H702L711 397L702 379H678L669 397L678 415Z" stroke="#44464F"/>
<path d="M645 397H669L678 379L669 361H645L636 379L645 397Z" stroke="#44464F"/>
<path d="M678 379H702L711 361L702 343H678L669 361L678 379Z" stroke="#44464F"/>
<path d="M711 397H735L744 379L735 361H711L702 379L711 397Z" stroke="#44464F"/>
<path d="M711 361H735L744 343L735 325H711L702 343L711 361Z" stroke="#44464F"/>
<path d="M612 487H636L645 469L636 451H612L603 469L612 487Z" stroke="#44464F"/>
<path d="M645 505H669L678 487L669 469H645L636 487L645 505Z" stroke="#44464F"/>
<path d="M612 523H636L645 505L636 487H612L603 505L612 523Z" stroke="#44464F"/>
<path d="M579 469H603L612 451L603 433H579L570 451L579 469Z" stroke="#44464F"/>
<path d="M579 505H603L612 487L603 469H579L570 487L579 505Z" stroke="#44464F"/>
<path d="M612 451H636L645 433L636 415H612L603 433L612 451Z" stroke="#44464F"/>
<path d="M546 415H570L579 397L570 379H546L537 397L546 415Z" stroke="#44464F"/>
<path d="M513 397H537L546 379L537 361H513L504 379L513 397Z" stroke="#44464F"/>
<path d="M546 379H570L579 361L570 343H546L537 361L546 379Z" stroke="#44464F"/>
<path d="M612 415H636L645 397L636 379H612L603 397L612 415Z" stroke="#44464F"/>
<path d="M645 433H669L678 415L669 397H645L636 415L645 433Z" stroke="#44464F"/>
<path d="M579 397H603L612 379L603 361H579L570 379L579 397Z" stroke="#44464F"/>
<path d="M513 361H537L546 343L537 325H513L504 343L513 361Z" stroke="#44464F"/>
<path d="M579 433H603L612 415L603 397H579L570 415L579 433Z" stroke="#44464F"/>
<path d="M612 379H636L645 361L636 343H612L603 361L612 379Z" stroke="#44464F"/>
<path d="M414 271H438L447 253L438 235H414L405 253L414 271Z" stroke="#44464F"/>
<path d="M447 253H471L480 235L471 217H447L438 235L447 253Z" stroke="#44464F"/>
<path d="M348 235H372L381 217L372 199H348L339 217L348 235Z" stroke="#44464F"/>
<path d="M315 217H339L348 199L339 181H315L306 199L315 217Z" stroke="#44464F"/>
<path d="M480 271H504L513 253L504 235H480L471 253L480 271Z" stroke="#44464F"/>
<path d="M579 361H603L612 343L603 325H579L570 343L579 361Z" stroke="#44464F"/>
<path d="M117 289H141L150 271L141 253H117L108 271L117 289Z" stroke="#44464F"/>
<path d="M150 271H174L183 253L174 235H150L141 253L150 271Z" stroke="#44464F"/>
<path d="M216 343H240L249 325L240 307H216L207 325L216 343Z" stroke="#44464F"/>
<path d="M117 397H141L150 379L141 361H117L108 379L117 397Z" stroke="#44464F"/>
<path d="M348 343H372L381 325L372 307H348L339 325L348 343Z" stroke="#44464F"/>
<path d="M381 325H405L414 307L405 289H381L372 307L381 325Z" stroke="#44464F"/>
<path d="M447 361H471L480 343L471 325H447L438 343L447 361Z" stroke="#44464F"/>
<path d="M480 379H504L513 361L504 343H480L471 361L480 379Z" stroke="#44464F"/>
<path d="M381 397H405L414 379L405 361H381L372 379L381 397Z" stroke="#44464F"/>
<path d="M315 37H339L348 19L339 0.999999H315L306 19L315 37Z" stroke="#44464F"/>
<path d="M513 109H537L546 91L537 73H513L504 91L513 109Z" stroke="#44464F"/>
<path d="M579 37H603L612 19L603 0.999999H579L570 19L579 37Z" stroke="#44464F"/>
<path d="M612 163H636L645 145L636 127H612L603 145L612 163Z" stroke="#44464F"/>
<path d="M678 235H702L711 217L702 199H678L669 217L678 235Z" stroke="#44464F"/>
<path d="M645 145H669L678 127L669 109H645L636 127L645 145Z" stroke="#44464F"/>
</g>
</svg>
