<?xml version="1.0" encoding="UTF-8" standalone="no"?>
<svg
   xmlns:dc="http://purl.org/dc/elements/1.1/"
   xmlns:cc="http://creativecommons.org/ns#"
   xmlns:rdf="http://www.w3.org/1999/02/22-rdf-syntax-ns#"
   xmlns:svg="http://www.w3.org/2000/svg"
   xmlns="http://www.w3.org/2000/svg"
   xmlns:sodipodi="http://sodipodi.sourceforge.net/DTD/sodipodi-0.dtd"
   xmlns:inkscape="http://www.inkscape.org/namespaces/inkscape"
   width="208.125"
   height="361"
   viewBox="0 0 208.125 361"
   id="svg2"
   version="1.1"
   inkscape:version="0.48.4 r9939"
   sodipodi:docname="Group.svg"
   style="fill:none">
  <metadata
     id="metadata56">
    <rdf:RDF>
      <cc:Work
         rdf:about="">
        <dc:format>image/svg+xml</dc:format>
        <dc:type
           rdf:resource="http://purl.org/dc/dcmitype/StillImage" />
        <dc:title></dc:title>
      </cc:Work>
    </rdf:RDF>
  </metadata>
  <defs
     id="defs54" />
  <sodipodi:namedview
     pagecolor="#ffffff"
     bordercolor="#666666"
     borderopacity="1"
     objecttolerance="10"
     gridtolerance="10"
     guidetolerance="10"
     inkscape:pageopacity="0"
     inkscape:pageshadow="2"
     inkscape:window-width="1873"
     inkscape:window-height="1176"
     id="namedview52"
     showgrid="false"
     fit-margin-top="0"
     fit-margin-left="0"
     fit-margin-right="0"
     fit-margin-bottom="0"
     inkscape:zoom="1.3111111"
     inkscape:cx="-280.08579"
     inkscape:cy="-3.5340345"
     inkscape:window-x="47"
     inkscape:window-y="24"
     inkscape:window-maximized="1"
     inkscape:current-layer="svg2" />
  <path
     d="m 141.52436,72.5 h 24 l 9,18 -9,18 h -24 l -9,-18 9,-18 z"
     id="path4"
     inkscape:connector-curvature="0"
     style="fill:#2e3038" />
  <path
     d="m 174.52436,90.5 h 24 l 9,18 -9,18 h -24 l -9,-18 9,-18 z"
     id="path6"
     inkscape:connector-curvature="0"
     style="fill:#2e3038" />
  <path
     d="m 141.52436,288.5 h 24 l 9,18 -9,18 h -24 l -9,-18 9,-18 z"
     id="path8"
     inkscape:connector-curvature="0"
     style="fill:#2e3038" />
  <path
     d="m 108.52436,306.5 h 24 l 9,18 -9,18 h -24 l -8.999998,-18 8.999998,-18 z"
     id="path10"
     inkscape:connector-curvature="0"
     style="fill:#2e3038" />
  <path
     d="m 42.524362,18.5 h 24 l 9,18 -9,18 h -24 l -9,-18 9,-18 z"
     id="path12"
     inkscape:connector-curvature="0"
     style="fill:#2e3038" />
  <path
     d="m 75.524362,324.5 h 24 l 8.999998,18 -8.999998,18 h -24 l -9,-18 9,-18 z"
     id="path14"
     inkscape:connector-curvature="0"
     style="fill:#2e3038" />
  <path
     d="m 75.524362,0.5000004 h 24 L 108.52436,18.5 l -8.999998,18 h -24 l -9,-18 9,-17.9999996 z"
     id="path16"
     inkscape:connector-curvature="0"
     style="fill:#2e3038" />
  <path
     d="m 174.52436,306.5 h 24 l 9,18 -9,18 h -24 l -9,-18 9,-18 z"
     id="path18"
     inkscape:connector-curvature="0"
     style="fill:#2e3038" />
  <path
     d="m 108.52436,18.5 h 24 l 9,18 -9,18 h -24 l -8.999998,-18 8.999998,-18 z"
     id="path20"
     inkscape:connector-curvature="0"
     style="fill:#2e3038" />
  <path
     d="m 42.524362,54.5 h 24 l 9,18 -9,18 h -24 l -9,-18 9,-18 z"
     id="path22"
     inkscape:connector-curvature="0"
     style="fill:#2e3038" />
  <path
     d="M 9.5243625,72.5 H 33.524362 l 9,18 -9,18 H 9.5243625 l -9.00000004,-18 9.00000004,-18 z"
     id="path24"
     inkscape:connector-curvature="0"
     style="fill:#2e3038" />
  <path
     d="m 42.524362,90.5 h 24 l 9,18 -9,18 h -24 l -9,-18 9,-18 z"
     id="path26"
     inkscape:connector-curvature="0"
     style="fill:#2e3038" />
  <path
     d="m 108.52436,54.5 h 24 l 9,18 -9,18 h -24 l -8.999998,-18 8.999998,-18 z"
     id="path28"
     inkscape:connector-curvature="0"
     style="fill:#2e3038" />
  <path
     d="m 141.52436,36.5 h 24 l 9,18 -9,18 h -24 l -9,-18 9,-18 z"
     id="path30"
     inkscape:connector-curvature="0"
     style="fill:#2e3038" />
  <path
     d="m 75.524362,72.5 h 24 l 8.999998,18 -8.999998,18 h -24 l -9,-18 9,-18 z"
     id="path32"
     inkscape:connector-curvature="0"
     style="fill:#2e3038" />
  <path
     d="m 75.524362,36.5 h 24 l 8.999998,18 -8.999998,18 h -24 l -9,-18 9,-18 z"
     id="path34"
     inkscape:connector-curvature="0"
     style="fill:#2e3038" />
  <path
     d="m 174.52436,162.5 h 24 l 9,18 -9,18 h -24 l -9,-18 9,-18 z"
     id="path36"
     inkscape:connector-curvature="0"
     style="fill:#2e3038" />
  <path
     d="m 174.52436,126.5 h 24 l 9,18 -9,18 h -24 l -9,-18 9,-18 z"
     id="path38"
     inkscape:connector-curvature="0"
     style="fill:#2e3038" />
  <path
     d="m 141.52436,180.5 h 24 l 9,18 -9,18 h -24 l -9,-18 9,-18 z"
     id="path40"
     inkscape:connector-curvature="0"
     style="fill:#2e3038" />
  <path
     d="m 174.52436,198.5 h 24 l 9,18 -9,18 h -24 l -9,-18 9,-18 z"
     id="path42"
     inkscape:connector-curvature="0"
     style="fill:#2e3038" />
  <path
     d="m 174.52436,234.5 h 24 l 9,18 -9,18 h -24 l -9,-18 9,-18 z"
     id="path44"
     inkscape:connector-curvature="0"
     style="fill:#2e3038" />
  <path
     d="m 141.52436,252.5 h 24 l 9,18 -9,18 h -24 l -9,-18 9,-18 z"
     id="path46"
     inkscape:connector-curvature="0"
     style="fill:#f36e1e" />
  <path
     d="m 174.52436,270.5 h 24 l 9,18 -9,18 h -24 l -9,-18 9,-18 z"
     id="path48"
     inkscape:connector-curvature="0"
     style="fill:#2e3038" />
  <path
     d="m 42.524362,162.5 h 24 l 9,18 -9,18 h -24 l -9,-18 9,-18 z"
     id="path50"
     inkscape:connector-curvature="0"
     style="fill:#2e3038" />
  <g
     transform="translate(-0.4375,-0.5)"
     style="opacity:0.5"
     id="g4">
    <path
       style="stroke:#44464f"
       inkscape:connector-curvature="0"
       d="m 142,1 h 24 l 9,18 -9,18 h -24 l -9,-18 9,-18 z"
       id="path6-3" />
    <path
       style="stroke:#44464f"
       inkscape:connector-curvature="0"
       d="m 175,19 h 24 l 9,18 -9,18 h -24 l -9,-18 9,-18 z"
       id="path8-6" />
    <path
       style="stroke:#44464f"
       inkscape:connector-curvature="0"
       d="m 175,55 h 24 l 9,18 -9,18 h -24 l -9,-18 9,-18 z"
       id="path10-7" />
    <path
       style="stroke:#44464f"
       inkscape:connector-curvature="0"
       d="m 142,73 h 24 l 9,18 -9,18 h -24 l -9,-18 9,-18 z"
       id="path12-5" />
    <path
       style="stroke:#44464f"
       inkscape:connector-curvature="0"
       d="m 175,91 h 24 l 9,18 -9,18 h -24 l -9,-18 9,-18 z"
       id="path14-3" />
    <path
       style="stroke:#44464f"
       inkscape:connector-curvature="0"
       d="m 142,289 h 24 l 9,18 -9,18 h -24 l -9,-18 9,-18 z"
       id="path16-5" />
    <path
       style="stroke:#44464f"
       inkscape:connector-curvature="0"
       d="m 109,307 h 24 l 9,18 -9,18 h -24 l -9,-18 9,-18 z"
       id="path18-6" />
    <path
       style="stroke:#44464f"
       inkscape:connector-curvature="0"
       d="m 43,19 h 24 l 9,18 -9,18 H 43 L 34,37 43,19 z"
       id="path20-2" />
    <path
       style="stroke:#44464f"
       inkscape:connector-curvature="0"
       d="m 76,325 h 24 l 9,18 -9,18 H 76 l -9,-18 9,-18 z"
       id="path22-9" />
    <path
       style="stroke:#44464f"
       inkscape:connector-curvature="0"
       d="m 76,1 h 24 l 9,18 -9,18 H 76 L 67,19 76,1 z"
       id="path24-1" />
    <path
       style="stroke:#44464f"
       inkscape:connector-curvature="0"
       d="m 175,307 h 24 l 9,18 -9,18 h -24 l -9,-18 9,-18 z"
       id="path26-2" />
    <path
       style="stroke:#44464f"
       inkscape:connector-curvature="0"
       d="m 109,19 h 24 l 9,18 -9,18 h -24 l -9,-18 9,-18 z"
       id="path28-7" />
    <path
       style="stroke:#44464f"
       inkscape:connector-curvature="0"
       d="m 43,55 h 24 l 9,18 -9,18 H 43 L 34,73 43,55 z"
       id="path30-0" />
    <path
       style="stroke:#44464f"
       inkscape:connector-curvature="0"
       d="m 10,73 h 24 l 9,18 -9,18 H 10 L 1,91 10,73 z"
       id="path32-9" />
    <path
       style="stroke:#44464f"
       inkscape:connector-curvature="0"
       d="m 43,91 h 24 l 9,18 -9,18 H 43 l -9,-18 9,-18 z"
       id="path34-3" />
    <path
       style="stroke:#44464f"
       inkscape:connector-curvature="0"
       d="m 109,55 h 24 l 9,18 -9,18 h -24 l -9,-18 9,-18 z"
       id="path36-6" />
    <path
       style="stroke:#44464f"
       inkscape:connector-curvature="0"
       d="m 142,37 h 24 l 9,18 -9,18 h -24 l -9,-18 9,-18 z"
       id="path38-0" />
    <path
       style="stroke:#44464f"
       inkscape:connector-curvature="0"
       d="m 76,73 h 24 l 9,18 -9,18 H 76 L 67,91 76,73 z"
       id="path40-6" />
    <path
       style="stroke:#44464f"
       inkscape:connector-curvature="0"
       d="m 76,37 h 24 l 9,18 -9,18 H 76 L 67,55 76,37 z"
       id="path42-2" />
    <path
       style="stroke:#44464f"
       inkscape:connector-curvature="0"
       d="m 175,163 h 24 l 9,18 -9,18 h -24 l -9,-18 9,-18 z"
       id="path44-6" />
    <path
       style="stroke:#44464f"
       inkscape:connector-curvature="0"
       d="m 175,127 h 24 l 9,18 -9,18 h -24 l -9,-18 9,-18 z"
       id="path46-1" />
    <path
       style="stroke:#44464f"
       inkscape:connector-curvature="0"
       d="m 142,181 h 24 l 9,18 -9,18 h -24 l -9,-18 9,-18 z"
       id="path48-8" />
    <path
       style="stroke:#44464f"
       inkscape:connector-curvature="0"
       d="m 175,199 h 24 l 9,18 -9,18 h -24 l -9,-18 9,-18 z"
       id="path50-7" />
    <path
       style="stroke:#44464f"
       inkscape:connector-curvature="0"
       d="m 175,235 h 24 l 9,18 -9,18 h -24 l -9,-18 9,-18 z"
       id="path52" />
    <path
       style="stroke:#44464f"
       inkscape:connector-curvature="0"
       d="m 142,253 h 24 l 9,18 -9,18 h -24 l -9,-18 9,-18 z"
       id="path54" />
    <path
       style="stroke:#44464f"
       inkscape:connector-curvature="0"
       d="m 175,271 h 24 l 9,18 -9,18 h -24 l -9,-18 9,-18 z"
       id="path56" />
    <path
       style="stroke:#44464f"
       inkscape:connector-curvature="0"
       d="m 43,163 h 24 l 9,18 -9,18 H 43 l -9,-18 9,-18 z"
       id="path58" />
    <path
       style="stroke:#44464f"
       inkscape:connector-curvature="0"
       d="m 43,127 h 24 l 9,18 -9,18 H 43 l -9,-18 9,-18 z"
       id="path60" />
    <path
       style="stroke:#44464f"
       inkscape:connector-curvature="0"
       d="m 76,145 h 24 l 9,18 -9,18 H 76 l -9,-18 9,-18 z"
       id="path62" />
    <path
       style="stroke:#44464f"
       inkscape:connector-curvature="0"
       d="m 109,91 h 24 l 9,18 -9,18 h -24 l -9,-18 9,-18 z"
       id="path64" />
    <path
       style="stroke:#44464f"
       inkscape:connector-curvature="0"
       d="m 109,199 h 24 l 9,18 -9,18 h -24 l -9,-18 9,-18 z"
       id="path66" />
    <path
       style="stroke:#44464f"
       inkscape:connector-curvature="0"
       d="m 109,271 h 24 l 9,18 -9,18 h -24 l -9,-18 9,-18 z"
       id="path68" />
  </g>
</svg>
