<svg width="40" height="40" viewBox="0 0 40 40" fill="none" xmlns="http://www.w3.org/2000/svg">
<path d="M38.9504 30.8583L30.8542 25.4591C29.8268 24.7794 28.4496 25.003 27.69 25.973L25.3317 29.0052C25.0286 29.4048 24.4777 29.5207 24.0392 29.2772L23.5906 29.0299C22.1035 28.2193 20.2531 27.2101 16.525 23.4807C12.7969 19.7512 11.7857 17.8995 10.9751 16.4151L10.7292 15.9665C10.4822 15.5281 10.596 14.9748 10.9958 14.6693L14.0259 12.3117C14.9955 11.5521 15.2194 10.1752 14.5406 9.14751L9.14135 1.05137C8.4456 0.00480399 7.04971 -0.309368 5.9726 0.338114L2.58709 2.3718C1.52334 2.99717 0.742912 4.00999 0.409446 5.19802C-0.80967 9.64001 0.107458 17.3062 11.4005 28.6006C20.3838 37.5832 27.0715 39.9989 31.6682 39.9989C32.7261 40.0034 33.7798 39.8658 34.8011 39.5896C35.9893 39.2566 37.0023 38.476 37.6273 37.412L39.663 34.0285C40.3114 32.9512 39.9974 31.5544 38.9504 30.8583ZM38.5144 33.3445L36.4834 36.7301C36.0346 37.4981 35.3061 38.0627 34.4503 38.3058C30.3496 39.4317 23.1854 38.4992 12.3436 27.6574C1.50186 16.8157 0.569422 9.65204 1.69527 5.5507C1.93867 4.69395 2.50406 3.96445 3.27301 3.51499L6.65852 1.48396C7.12587 1.20275 7.73172 1.33906 8.03363 1.79321L10.9666 6.19654L13.4282 9.88865C13.723 10.3344 13.6262 10.9319 13.2056 11.2618L10.1747 13.6194C9.25235 14.3247 8.98895 15.6008 9.55684 16.6137L9.79751 17.0509C10.6494 18.6134 11.7085 20.5571 15.5753 24.4232C19.4421 28.2893 21.3852 29.3485 22.9469 30.2003L23.3848 30.4416C24.3975 31.0094 25.6737 30.7461 26.379 29.8237L28.7366 26.7929C29.0666 26.3725 29.6639 26.2757 30.1098 26.5702L38.2052 31.9694C38.6597 32.2711 38.796 32.8773 38.5144 33.3445Z" fill="white"/>
<path d="M22.6656 6.67012C28.921 6.67707 33.9902 11.7464 33.9972 18.0018C33.9972 18.3699 34.2956 18.6683 34.6638 18.6683C35.0319 18.6683 35.3303 18.3699 35.3303 18.0018C35.3226 11.0104 29.657 5.34469 22.6656 5.33704C22.2974 5.33704 21.999 5.63543 21.999 6.00358C21.999 6.37173 22.2974 6.67012 22.6656 6.67012Z" fill="#F5941E"/>
<path d="M22.6656 10.6695C26.7131 10.6743 29.9931 13.9543 29.9978 18.0018C29.9978 18.3699 30.2963 18.6683 30.6644 18.6683C31.0325 18.6683 31.3309 18.3699 31.3309 18.0018C31.3254 13.2183 27.449 9.34189 22.6656 9.33643C22.2974 9.33643 21.999 9.63482 21.999 10.003C21.999 10.3711 22.2974 10.6695 22.6656 10.6695Z" fill="#F5941E"/>
<path d="M22.6656 14.6689C24.5053 14.6711 25.9962 16.162 25.9984 18.0018C25.9984 18.3699 26.2969 18.6683 26.665 18.6683C27.033 18.6683 27.3315 18.3699 27.3315 18.0018C27.3285 15.4261 25.2413 13.3387 22.6656 13.3358C22.2974 13.3358 21.999 13.6342 21.999 14.0024C21.999 14.3705 22.2974 14.6689 22.6656 14.6689Z" fill="#F5941E"/>
</svg>
