<svg width="240" height="160" viewBox="0 0 240 160" fill="none" xmlns="http://www.w3.org/2000/svg">
<path d="M197.164 122.213C197.164 135.209 194.351 147.706 189.15 159.428C219.418 139.136 238.623 110.167 239.415 77.9331L240.001 77.2739V0H140.291V100.015H194.365C196.196 107.209 197.164 114.623 197.164 122.213Z" fill="#44464F"/>
<path d="M54.4848 100.016C56.4187 107.385 57.4295 114.991 57.4295 122.769C57.4295 135.766 54.602 148.278 49.4012 160C80.0637 139.443 99.373 110.007 99.6951 77.2744H99.7096V76.8786C99.7096 76.7173 99.7096 76.571 99.7096 76.4098C99.7096 76.2485 99.7096 76.0872 99.7096 75.9263V0H0V100.015H54.4848V100.016Z" fill="#44464F"/>
</svg>
