<?xml version="1.0" encoding="UTF-8" standalone="no"?>
<svg
   xmlns:dc="http://purl.org/dc/elements/1.1/"
   xmlns:cc="http://creativecommons.org/ns#"
   xmlns:rdf="http://www.w3.org/1999/02/22-rdf-syntax-ns#"
   xmlns:svg="http://www.w3.org/2000/svg"
   xmlns="http://www.w3.org/2000/svg"
   xmlns:sodipodi="http://sodipodi.sourceforge.net/DTD/sodipodi-0.dtd"
   xmlns:inkscape="http://www.inkscape.org/namespaces/inkscape"
   width="241.125"
   height="451"
   viewBox="0 0 241.125 451"
   id="svg2"
   version="1.1"
   inkscape:version="0.48.4 r9939"
   sodipodi:docname="Group.svg"
   style="fill:none">
  <metadata
     id="metadata114">
    <rdf:RDF>
      <cc:Work
         rdf:about="">
        <dc:format>image/svg+xml</dc:format>
        <dc:type
           rdf:resource="http://purl.org/dc/dcmitype/StillImage" />
        <dc:title></dc:title>
      </cc:Work>
    </rdf:RDF>
  </metadata>
  <defs
     id="defs112" />
  <sodipodi:namedview
     pagecolor="#ffffff"
     bordercolor="#666666"
     borderopacity="1"
     objecttolerance="10"
     gridtolerance="10"
     guidetolerance="10"
     inkscape:pageopacity="0"
     inkscape:pageshadow="2"
     inkscape:window-width="731"
     inkscape:window-height="878"
     id="namedview110"
     showgrid="false"
     fit-margin-top="0"
     fit-margin-left="0"
     fit-margin-right="0"
     fit-margin-bottom="0"
     inkscape:zoom="1.0488889"
     inkscape:cx="108.01158"
     inkscape:cy="229.72761"
     inkscape:window-x="1051"
     inkscape:window-y="209"
     inkscape:window-maximized="0"
     inkscape:current-layer="svg2" />
  <path
     d="m 66.535729,54.497033 h -24 l -9,18 9,18 h 24 l 9,-18 -9,-18 z"
     id="path4"
     inkscape:connector-curvature="0"
     style="fill:#2e3038" />
  <path
     d="m 66.535729,18.497033 h -24 l -9,18 9,18 h 24 l 9,-18 -9,-18 z"
     id="path6"
     inkscape:connector-curvature="0"
     style="fill:#2e3038" />
  <path
     d="m 99.535729,72.497033 h -24 l -9,18 9,17.999997 h 24 l 9.000001,-17.999997 -9.000001,-18 z"
     id="path8"
     inkscape:connector-curvature="0"
     style="fill:#2e3038" />
  <path
     d="m 66.535729,90.497033 h -24 l -9,17.999997 9,18 h 24 l 9,-18 -9,-17.999997 z"
     id="path10"
     inkscape:connector-curvature="0"
     style="fill:#2e3038" />
  <path
     d="M 33.535729,72.497033 H 9.5357287 l -8.99999996,18 8.99999996,17.999997 H 33.535729 l 9,-17.999997 -9,-18 z"
     id="path12"
     inkscape:connector-curvature="0"
     style="fill:#2e3038" />
  <path
     d="M 33.535729,36.497033 H 9.5357287 l -8.99999996,18 8.99999996,18 H 33.535729 l 9,-18 -9,-18 z"
     id="path14"
     inkscape:connector-curvature="0"
     style="fill:#2e3038" />
  <path
     d="m 66.535729,126.49703 h -24 l -9,18 9,18 h 24 l 9,-18 -9,-18 z"
     id="path16"
     inkscape:connector-curvature="0"
     style="fill:#2e3038" />
  <path
     d="m 99.535729,144.49703 h -24 l -9,18 9,18 h 24 l 9.000001,-18 -9.000001,-18 z"
     id="path18"
     inkscape:connector-curvature="0"
     style="fill:#2e3038" />
  <path
     d="m 66.535729,162.49703 h -24 l -9,18 9,18 h 24 l 9,-18 -9,-18 z"
     id="path20"
     inkscape:connector-curvature="0"
     style="fill:#2e3038" />
  <path
     d="M 33.535729,180.49703 H 9.5357287 l -8.99999996,18 8.99999996,18 H 33.535729 l 9,-18 -9,-18 z"
     id="path22"
     inkscape:connector-curvature="0"
     style="fill:#2e3038" />
  <path
     d="m 99.535729,360.49703 h -24 l -9,18 9,18 h 24 l 9.000001,-18 -9.000001,-18 z"
     id="path24"
     inkscape:connector-curvature="0"
     style="fill:#2e3038" />
  <path
     d="m 132.53573,378.49703 h -24 l -9.000001,18 9.000001,18 h 24 l 9,-18 -9,-18 z"
     id="path26"
     inkscape:connector-curvature="0"
     style="fill:#2e3038" />
  <path
     d="m 198.53573,90.497033 h -24 l -9,17.999997 9,18 h 24 l 9,-18 -9,-17.999997 z"
     id="path28"
     inkscape:connector-curvature="0"
     style="fill:#2e3038" />
  <path
     d="m 132.53573,54.497033 h -24 l -9.000001,18 9.000001,18 h 24 l 9,-18 -9,-18 z"
     id="path30"
     inkscape:connector-curvature="0"
     style="fill:#2e3038" />
  <path
     d="m 165.53573,396.49703 h -24 l -9,18 9,18 h 24 l 9,-18 -9,-18 z"
     id="path32"
     inkscape:connector-curvature="0"
     style="fill:#2e3038" />
  <path
     d="M 33.535729,0.497033 H 9.5357287 l -8.99999996,18 8.99999996,18 H 33.535729 l 9,-18 -9,-18 z"
     id="path34"
     inkscape:connector-curvature="0"
     style="fill:#2e3038" />
  <path
     d="m 165.53573,72.497033 h -24 l -9,18 9,17.999997 h 24 l 9,-17.999997 -9,-18 z"
     id="path36"
     inkscape:connector-curvature="0"
     style="fill:#2e3038" />
  <path
     d="m 66.535729,378.49703 h -24 l -9,18 9,18 h 24 l 9,-18 -9,-18 z"
     id="path38"
     inkscape:connector-curvature="0"
     style="fill:#2e3038" />
  <path
     d="m 132.53573,90.497033 h -24 l -9.000001,17.999997 9.000001,18 h 24 l 9,-18 -9,-17.999997 z"
     id="path40"
     inkscape:connector-curvature="0"
     style="fill:#2e3038" />
  <path
     d="m 198.53573,126.49703 h -24 l -9,18 9,18 h 24 l 9,-18 -9,-18 z"
     id="path42"
     inkscape:connector-curvature="0"
     style="fill:#fdb811" />
  <path
     d="m 231.53573,144.49703 h -24 l -9,18 9,18 h 24 l 9,-18 -9,-18 z"
     id="path44"
     inkscape:connector-curvature="0"
     style="fill:#2e3038" />
  <path
     d="m 198.53573,162.49703 h -24 l -9,18 9,18 h 24 l 9,-18 -9,-18 z"
     id="path46"
     inkscape:connector-curvature="0"
     style="fill:#2e3038" />
  <path
     d="m 132.53573,126.49703 h -24 l -9.000001,18 9.000001,18 h 24 l 9,-18 -9,-18 z"
     id="path48"
     inkscape:connector-curvature="0"
     style="fill:#2e3038" />
  <path
     d="m 99.535729,108.49703 h -24 l -9,18 9,18 h 24 l 9.000001,-18 -9.000001,-18 z"
     id="path50"
     inkscape:connector-curvature="0"
     style="fill:#2e3038" />
  <path
     d="m 165.53573,144.49703 h -24 l -9,18 9,18 h 24 l 9,-18 -9,-18 z"
     id="path52"
     inkscape:connector-curvature="0"
     style="fill:#2e3038" />
  <path
     d="m 165.53573,108.49703 h -24 l -9,18 9,18 h 24 l 9,-18 -9,-18 z"
     id="path54"
     inkscape:connector-curvature="0"
     style="fill:#2e3038" />
  <path
     d="m 66.535729,234.49703 h -24 l -9,18 9,18 h 24 l 9,-18 -9,-18 z"
     id="path56"
     inkscape:connector-curvature="0"
     style="fill:#2e3038" />
  <path
     d="m 66.535729,198.49703 h -24 l -9,18 9,18 h 24 l 9,-18 -9,-18 z"
     id="path58"
     inkscape:connector-curvature="0"
     style="fill:#2e3038" />
  <path
     d="m 99.535729,252.49703 h -24 l -9,18 9,18 h 24 l 9.000001,-18 -9.000001,-18 z"
     id="path60"
     inkscape:connector-curvature="0"
     style="fill:#2e3038" />
  <path
     d="m 66.535729,270.49703 h -24 l -9,18 9,18 h 24 l 9,-18 -9,-18 z"
     id="path62"
     inkscape:connector-curvature="0"
     style="fill:#2e3038" />
  <path
     d="M 33.535729,252.49703 H 9.5357287 l -8.99999996,18 8.99999996,18 H 33.535729 l 9,-18 -9,-18 z"
     id="path64"
     inkscape:connector-curvature="0"
     style="fill:#f36e1e" />
  <path
     d="M 33.535729,216.49703 H 9.5357287 l -8.99999996,18 8.99999996,18 H 33.535729 l 9,-18 -9,-18 z"
     id="path66"
     inkscape:connector-curvature="0"
     style="fill:#2e3038" />
  <path
     d="m 66.535729,306.49703 h -24 l -9,18 9,18 h 24 l 9,-18 -9,-18 z"
     id="path68"
     inkscape:connector-curvature="0"
     style="fill:#2e3038" />
  <path
     d="m 99.535729,324.49703 h -24 l -9,18 9,18 h 24 l 9.000001,-18 -9.000001,-18 z"
     id="path70"
     inkscape:connector-curvature="0"
     style="fill:#2e3038" />
  <path
     d="m 66.535729,342.49703 h -24 l -9,18 9,18 h 24 l 9,-18 -9,-18 z"
     id="path72"
     inkscape:connector-curvature="0"
     style="fill:#2e3038" />
  <path
     d="M 33.535729,324.49703 H 9.5357287 l -8.99999996,18 8.99999996,18 H 33.535729 l 9,-18 -9,-18 z"
     id="path74"
     inkscape:connector-curvature="0"
     style="fill:#2e3038" />
  <path
     d="M 33.535729,360.49703 H 9.5357287 l -8.99999996,18 8.99999996,18 H 33.535729 l 9,-18 -9,-18 z"
     id="path76"
     inkscape:connector-curvature="0"
     style="fill:#2e3038" />
  <path
     d="M 33.535729,288.49703 H 9.5357287 l -8.99999996,18 8.99999996,18 H 33.535729 l 9,-18 -9,-18 z"
     id="path78"
     inkscape:connector-curvature="0"
     style="fill:#2e3038" />
  <path
     d="m 198.53573,234.49703 h -24 l -9,18 9,18 h 24 l 9,-18 -9,-18 z"
     id="path80"
     inkscape:connector-curvature="0"
     style="fill:#2e3038" />
  <path
     d="m 198.53573,198.49703 h -24 l -9,18 9,18 h 24 l 9,-18 -9,-18 z"
     id="path82"
     inkscape:connector-curvature="0"
     style="fill:#2e3038" />
  <path
     d="m 231.53573,252.49703 h -24 l -9,18 9,18 h 24 l 9,-18 -9,-18 z"
     id="path84"
     inkscape:connector-curvature="0"
     style="fill:#2e3038" />
  <path
     d="m 198.53573,270.49703 h -24 l -9,18 9,18 h 24 l 9,-18 -9,-18 z"
     id="path86"
     inkscape:connector-curvature="0"
     style="fill:#2e3038" />
  <path
     d="m 132.53573,234.49703 h -24 l -9.000001,18 9.000001,18 h 24 l 9,-18 -9,-18 z"
     id="path88"
     inkscape:connector-curvature="0"
     style="fill:#2e3038" />
  <path
     d="m 99.535729,216.49703 h -24 l -9,18 9,18 h 24 l 9.000001,-18 -9.000001,-18 z"
     id="path90"
     inkscape:connector-curvature="0"
     style="fill:#2e3038" />
  <path
     d="m 165.53573,252.49703 h -24 l -9,18 9,18 h 24 l 9,-18 -9,-18 z"
     id="path92"
     inkscape:connector-curvature="0"
     style="fill:#2e3038" />
  <path
     d="m 198.53573,306.49703 h -24 l -9,18 9,18 h 24 l 9,-18 -9,-18 z"
     id="path94"
     inkscape:connector-curvature="0"
     style="fill:#2e3038" />
  <path
     d="m 132.53573,270.49703 h -24 l -9.000001,18 9.000001,18 h 24 l 9,-18 -9,-18 z"
     id="path96"
     inkscape:connector-curvature="0"
     style="fill:#2e3038" />
  <path
     d="m 132.53573,342.49703 h -24 l -9.000001,18 9.000001,18 h 24 l 9,-18 -9,-18 z"
     id="path98"
     inkscape:connector-curvature="0"
     style="fill:#2e3038" />
  <path
     d="m 66.535729,414.49703 h -24 l -9,18 9,18 h 24 l 9,-18 -9,-18 z"
     id="path100"
     inkscape:connector-curvature="0"
     style="fill:#2e3038" />
  <path
     d="m 132.53573,306.49703 h -24 l -9.000001,18 9.000001,18 h 24 l 9,-18 -9,-18 z"
     id="path102"
     inkscape:connector-curvature="0"
     style="fill:#2e3038" />
  <path
     d="m 165.53573,324.49703 h -24 l -9,18 9,18 h 24 l 9,-18 -9,-18 z"
     id="path104"
     inkscape:connector-curvature="0"
     style="fill:#2e3038" />
  <path
     d="M 33.535729,396.49703 H 9.5357287 l -8.99999996,18 8.99999996,18 H 33.535729 l 9,-18 -9,-18 z"
     id="path106"
     inkscape:connector-curvature="0"
     style="fill:#2e3038" />
  <path
     d="m 165.53573,288.49703 h -24 l -9,18 9,18 h 24 l 9,-18 -9,-18 z"
     id="path108"
     inkscape:connector-curvature="0"
     style="fill:#2e3038" />
  <g
     transform="translate(20.5625,-18.5)"
     style="opacity:0.5"
     id="g4">
    <path
       style="stroke:#44464f"
       inkscape:connector-curvature="0"
       d="M 46,73 H 22 l -9,18 9,18 H 46 L 55,91 46,73 z"
       id="path6-3" />
    <path
       style="stroke:#44464f"
       inkscape:connector-curvature="0"
       d="M 46,37 H 22 l -9,18 9,18 H 46 L 55,55 46,37 z"
       id="path8-6" />
    <path
       style="stroke:#44464f"
       inkscape:connector-curvature="0"
       d="M 79,91 H 55 l -9,18 9,18 h 24 l 9,-18 -9,-18 z"
       id="path10-7" />
    <path
       style="stroke:#44464f"
       inkscape:connector-curvature="0"
       d="M 46,109 H 22 l -9,18 9,18 h 24 l 9,-18 -9,-18 z"
       id="path12-5" />
    <path
       style="stroke:#44464f"
       inkscape:connector-curvature="0"
       d="m 13,91 h -24 l -9,18 9,18 h 24 l 9,-18 -9,-18 z"
       id="path14-3" />
    <path
       style="stroke:#44464f"
       inkscape:connector-curvature="0"
       d="m 13,55 h -24 l -9,18 9,18 H 13 L 22,73 13,55 z"
       id="path16-5" />
    <path
       style="stroke:#44464f"
       inkscape:connector-curvature="0"
       d="M 46,145 H 22 l -9,18 9,18 h 24 l 9,-18 -9,-18 z"
       id="path18-6" />
    <path
       style="stroke:#44464f"
       inkscape:connector-curvature="0"
       d="M 79,163 H 55 l -9,18 9,18 h 24 l 9,-18 -9,-18 z"
       id="path20-2" />
    <path
       style="stroke:#44464f"
       inkscape:connector-curvature="0"
       d="M 46,181 H 22 l -9,18 9,18 h 24 l 9,-18 -9,-18 z"
       id="path22-9" />
    <path
       style="stroke:#44464f"
       inkscape:connector-curvature="0"
       d="m 13,163 h -24 l -9,18 9,18 h 24 l 9,-18 -9,-18 z"
       id="path24-1" />
    <path
       style="stroke:#44464f"
       inkscape:connector-curvature="0"
       d="m 13,199 h -24 l -9,18 9,18 h 24 l 9,-18 -9,-18 z"
       id="path26-2" />
    <path
       style="stroke:#44464f"
       inkscape:connector-curvature="0"
       d="m 13,127 h -24 l -9,18 9,18 h 24 l 9,-18 -9,-18 z"
       id="path28-7" />
    <path
       style="stroke:#44464f"
       inkscape:connector-curvature="0"
       d="m 178,73 h -24 l -9,18 9,18 h 24 l 9,-18 -9,-18 z"
       id="path30-0" />
    <path
       style="stroke:#44464f"
       inkscape:connector-curvature="0"
       d="M 79,379 H 55 l -9,18 9,18 h 24 l 9,-18 -9,-18 z"
       id="path32-9" />
    <path
       style="stroke:#44464f"
       inkscape:connector-curvature="0"
       d="M 112,397 H 88 l -9,18 9,18 h 24 l 9,-18 -9,-18 z"
       id="path34-3" />
    <path
       style="stroke:#44464f"
       inkscape:connector-curvature="0"
       d="m 178,109 h -24 l -9,18 9,18 h 24 l 9,-18 -9,-18 z"
       id="path36-6" />
    <path
       style="stroke:#44464f"
       inkscape:connector-curvature="0"
       d="M 112,73 H 88 l -9,18 9,18 h 24 l 9,-18 -9,-18 z"
       id="path38-0" />
    <path
       style="stroke:#44464f"
       inkscape:connector-curvature="0"
       d="m 145,415 h -24 l -9,18 9,18 h 24 l 9,-18 -9,-18 z"
       id="path40-6" />
    <path
       style="stroke:#44464f"
       inkscape:connector-curvature="0"
       d="m 13,19 h -24 l -9,18 9,18 H 13 L 22,37 13,19 z"
       id="path42-2" />
    <path
       style="stroke:#44464f"
       inkscape:connector-curvature="0"
       d="m 145,91 h -24 l -9,18 9,18 h 24 l 9,-18 -9,-18 z"
       id="path44-6" />
    <path
       style="stroke:#44464f"
       inkscape:connector-curvature="0"
       d="M 46,397 H 22 l -9,18 9,18 h 24 l 9,-18 -9,-18 z"
       id="path46-1" />
    <path
       style="stroke:#44464f"
       inkscape:connector-curvature="0"
       d="M 112,109 H 88 l -9,18 9,18 h 24 l 9,-18 -9,-18 z"
       id="path48-8" />
    <path
       style="stroke:#44464f"
       inkscape:connector-curvature="0"
       d="m 178,145 h -24 l -9,18 9,18 h 24 l 9,-18 -9,-18 z"
       id="path50-7" />
    <path
       style="stroke:#44464f"
       inkscape:connector-curvature="0"
       d="m 211,163 h -24 l -9,18 9,18 h 24 l 9,-18 -9,-18 z"
       id="path52-9" />
    <path
       style="stroke:#44464f"
       inkscape:connector-curvature="0"
       d="m 178,181 h -24 l -9,18 9,18 h 24 l 9,-18 -9,-18 z"
       id="path54-2" />
    <path
       style="stroke:#44464f"
       inkscape:connector-curvature="0"
       d="M 112,145 H 88 l -9,18 9,18 h 24 l 9,-18 -9,-18 z"
       id="path56-0" />
    <path
       style="stroke:#44464f"
       inkscape:connector-curvature="0"
       d="M 79,127 H 55 l -9,18 9,18 h 24 l 9,-18 -9,-18 z"
       id="path58-2" />
    <path
       style="stroke:#44464f"
       inkscape:connector-curvature="0"
       d="m 145,163 h -24 l -9,18 9,18 h 24 l 9,-18 -9,-18 z"
       id="path60-3" />
    <path
       style="stroke:#44464f"
       inkscape:connector-curvature="0"
       d="m 145,127 h -24 l -9,18 9,18 h 24 l 9,-18 -9,-18 z"
       id="path62-7" />
    <path
       style="stroke:#44464f"
       inkscape:connector-curvature="0"
       d="M 46,253 H 22 l -9,18 9,18 h 24 l 9,-18 -9,-18 z"
       id="path64-5" />
    <path
       style="stroke:#44464f"
       inkscape:connector-curvature="0"
       d="M 46,217 H 22 l -9,18 9,18 h 24 l 9,-18 -9,-18 z"
       id="path66-9" />
    <path
       style="stroke:#44464f"
       inkscape:connector-curvature="0"
       d="M 79,271 H 55 l -9,18 9,18 h 24 l 9,-18 -9,-18 z"
       id="path68-2" />
    <path
       style="stroke:#44464f"
       inkscape:connector-curvature="0"
       d="M 46,289 H 22 l -9,18 9,18 h 24 l 9,-18 -9,-18 z"
       id="path70-2" />
    <path
       style="stroke:#44464f"
       inkscape:connector-curvature="0"
       d="m 13,271 h -24 l -9,18 9,18 h 24 l 9,-18 -9,-18 z"
       id="path72-8" />
    <path
       style="stroke:#44464f"
       inkscape:connector-curvature="0"
       d="m 13,235 h -24 l -9,18 9,18 h 24 l 9,-18 -9,-18 z"
       id="path74-9" />
    <path
       style="stroke:#44464f"
       inkscape:connector-curvature="0"
       d="M 46,325 H 22 l -9,18 9,18 h 24 l 9,-18 -9,-18 z"
       id="path76-7" />
    <path
       style="stroke:#44464f"
       inkscape:connector-curvature="0"
       d="M 79,343 H 55 l -9,18 9,18 h 24 l 9,-18 -9,-18 z"
       id="path78-3" />
    <path
       style="stroke:#44464f"
       inkscape:connector-curvature="0"
       d="M 46,361 H 22 l -9,18 9,18 h 24 l 9,-18 -9,-18 z"
       id="path80-6" />
    <path
       style="stroke:#44464f"
       inkscape:connector-curvature="0"
       d="m 13,343 h -24 l -9,18 9,18 h 24 l 9,-18 -9,-18 z"
       id="path82-1" />
    <path
       style="stroke:#44464f"
       inkscape:connector-curvature="0"
       d="m 13,379 h -24 l -9,18 9,18 h 24 l 9,-18 -9,-18 z"
       id="path84-2" />
    <path
       style="stroke:#44464f"
       inkscape:connector-curvature="0"
       d="m 13,307 h -24 l -9,18 9,18 h 24 l 9,-18 -9,-18 z"
       id="path86-9" />
    <path
       style="stroke:#44464f"
       inkscape:connector-curvature="0"
       d="m 178,253 h -24 l -9,18 9,18 h 24 l 9,-18 -9,-18 z"
       id="path88-3" />
    <path
       style="stroke:#44464f"
       inkscape:connector-curvature="0"
       d="m 178,217 h -24 l -9,18 9,18 h 24 l 9,-18 -9,-18 z"
       id="path90-1" />
    <path
       style="stroke:#44464f"
       inkscape:connector-curvature="0"
       d="m 211,271 h -24 l -9,18 9,18 h 24 l 9,-18 -9,-18 z"
       id="path92-9" />
    <path
       style="stroke:#44464f"
       inkscape:connector-curvature="0"
       d="m 178,289 h -24 l -9,18 9,18 h 24 l 9,-18 -9,-18 z"
       id="path94-4" />
    <path
       style="stroke:#44464f"
       inkscape:connector-curvature="0"
       d="M 112,253 H 88 l -9,18 9,18 h 24 l 9,-18 -9,-18 z"
       id="path96-7" />
    <path
       style="stroke:#44464f"
       inkscape:connector-curvature="0"
       d="M 79,235 H 55 l -9,18 9,18 h 24 l 9,-18 -9,-18 z"
       id="path98-8" />
    <path
       style="stroke:#44464f"
       inkscape:connector-curvature="0"
       d="m 145,271 h -24 l -9,18 9,18 h 24 l 9,-18 -9,-18 z"
       id="path100-4" />
    <path
       style="stroke:#44464f"
       inkscape:connector-curvature="0"
       d="m 178,325 h -24 l -9,18 9,18 h 24 l 9,-18 -9,-18 z"
       id="path102-5" />
    <path
       style="stroke:#44464f"
       inkscape:connector-curvature="0"
       d="M 112,289 H 88 l -9,18 9,18 h 24 l 9,-18 -9,-18 z"
       id="path104-0" />
    <path
       style="stroke:#44464f"
       inkscape:connector-curvature="0"
       d="M 112,361 H 88 l -9,18 9,18 h 24 l 9,-18 -9,-18 z"
       id="path106-3" />
    <path
       style="stroke:#44464f"
       inkscape:connector-curvature="0"
       d="M 46,433 H 22 l -9,18 9,18 h 24 l 9,-18 -9,-18 z"
       id="path108-6" />
    <path
       style="stroke:#44464f"
       inkscape:connector-curvature="0"
       d="M 112,325 H 88 l -9,18 9,18 h 24 l 9,-18 -9,-18 z"
       id="path110" />
    <path
       style="stroke:#44464f"
       inkscape:connector-curvature="0"
       d="M 79,307 H 55 l -9,18 9,18 h 24 l 9,-18 -9,-18 z"
       id="path112" />
    <path
       style="stroke:#44464f"
       inkscape:connector-curvature="0"
       d="m 145,343 h -24 l -9,18 9,18 h 24 l 9,-18 -9,-18 z"
       id="path114" />
    <path
       style="stroke:#44464f"
       inkscape:connector-curvature="0"
       d="m 13,415 h -24 l -9,18 9,18 h 24 l 9,-18 -9,-18 z"
       id="path116" />
    <path
       style="stroke:#44464f"
       inkscape:connector-curvature="0"
       d="m 145,307 h -24 l -9,18 9,18 h 24 l 9,-18 -9,-18 z"
       id="path118" />
    <path
       style="stroke:#44464f"
       inkscape:connector-curvature="0"
       d="M 79,199 H 55 l -9,18 9,18 h 24 l 9,-18 -9,-18 z"
       id="path120" />
    <path
       style="stroke:#44464f"
       inkscape:connector-curvature="0"
       d="M 112,181 H 88 l -9,18 9,18 h 24 l 9,-18 -9,-18 z"
       id="path122" />
    <path
       style="stroke:#44464f"
       inkscape:connector-curvature="0"
       d="M 112,217 H 88 l -9,18 9,18 h 24 l 9,-18 -9,-18 z"
       id="path124" />
    <path
       style="stroke:#44464f"
       inkscape:connector-curvature="0"
       d="m 145,235 h -24 l -9,18 9,18 h 24 l 9,-18 -9,-18 z"
       id="path126" />
    <path
       style="stroke:#44464f"
       inkscape:connector-curvature="0"
       d="m 211,235 h -24 l -9,18 9,18 h 24 l 9,-18 -9,-18 z"
       id="path128" />
    <path
       style="stroke:#44464f"
       inkscape:connector-curvature="0"
       d="m 145,379 h -24 l -9,18 9,18 h 24 l 9,-18 -9,-18 z"
       id="path130" />
    <path
       style="stroke:#44464f"
       inkscape:connector-curvature="0"
       d="M 79,415 H 55 l -9,18 9,18 h 24 l 9,-18 -9,-18 z"
       id="path132" />
  </g>
</svg>
